<?xml version="1.0" encoding="utf-8"?>
<svg viewBox="0 0 840 421" role="img" aria-label="Агент собирает дашборд: создать дашборд, создать карточку из SQL, положить карточку на дашборд"><defs><marker id="нак-20BA72" viewBox="0 0 10 10" refX="9" refY="5" markerWidth="6" markerHeight="6" orient="auto-start-reverse"><path d="M0 0 L10 5 L0 10 z" fill="#20BA72"/></marker><marker id="нак-E4572E" viewBox="0 0 10 10" refX="9" refY="5" markerWidth="6" markerHeight="6" orient="auto-start-reverse"><path d="M0 0 L10 5 L0 10 z" fill="#E4572E"/></marker></defs><rect x="0" y="30" width="196" height="105" rx="14" fill="rgba(46,54,65,.05)" stroke="rgba(46,54,65,.18)"/><g transform="translate(18 48) scale(0.8333)" fill="none" stroke="#128a53" stroke-width="2.28" stroke-linecap="round" stroke-linejoin="round"><rect x="5" y="2" width="14" height="20" rx="2"/><path d="M5,6 L19,6"/><path d="M8,10 L16,10"/><path d="M8,14 L14,14"/><path d="M8,18 L12,18"/></g><text x="48" y="64" font-family="system-ui,sans-serif" font-size="17" font-weight="700" fill="#2E3641">Описание</text><text x="18" y="90.0" font-family="system-ui,sans-serif" font-size="16" font-weight="400" fill="rgba(46,54,65,.76)">какие показатели</text><text x="18" y="112.0" font-family="system-ui,sans-serif" font-size="16" font-weight="400" fill="rgba(46,54,65,.76)">и в каком виде</text><rect x="322" y="30" width="196" height="105" rx="14" fill="rgba(32,186,114,.10)" stroke="rgba(32,186,114,.32)"/><g transform="translate(340 48) scale(0.8333)" fill="none" stroke="#128a53" stroke-width="2.28" stroke-linecap="round" stroke-linejoin="round"><rect x="5" y="9" width="14" height="11" rx="2"/><circle cx="9" cy="14" r="1.5"/><circle cx="15" cy="14" r="1.5"/><path d="M10 18h4"/><path d="M12 4v5"/><circle cx="12" cy="3" r="1.5"/><path d="M3 13h2"/><path d="M19 13h2"/></g><text x="370" y="64" font-family="system-ui,sans-serif" font-size="17" font-weight="700" fill="#2E3641">Агент</text><text x="340" y="90.0" font-family="system-ui,sans-serif" font-size="16" font-weight="400" fill="rgba(46,54,65,.76)">пишет SQL и</text><text x="340" y="112.0" font-family="system-ui,sans-serif" font-size="16" font-weight="400" fill="rgba(46,54,65,.76)">вызывает API</text><rect x="644" y="30" width="196" height="105" rx="14" fill="rgba(46,54,65,.05)" stroke="rgba(46,54,65,.18)"/><g transform="translate(662 48) scale(0.8333)" fill="none" stroke="#128a53" stroke-width="2.28" stroke-linecap="round" stroke-linejoin="round"><path d="M18 20V10"/><path d="M12 20V4"/><path d="M6 20v-6"/></g><text x="692" y="64" font-family="system-ui,sans-serif" font-size="17" font-weight="700" fill="#2E3641">Дашборд в BI</text><text x="662" y="90.0" font-family="system-ui,sans-serif" font-size="16" font-weight="400" fill="rgba(46,54,65,.76)">постоянный объект</text><text x="662" y="112.0" font-family="system-ui,sans-serif" font-size="16" font-weight="400" fill="rgba(46,54,65,.76)">со ссылкой</text><path d="M196 82.5 L322 82.5" fill="none" stroke="#20BA72" stroke-width="2" stroke-linecap="round" marker-end="url(#нак-20BA72)"/><path d="M518 82.5 L644 82.5" fill="none" stroke="#20BA72" stroke-width="2" stroke-linecap="round" marker-end="url(#нак-20BA72)"/><rect x="140" y="195" width="560" height="214" rx="16" fill="none" stroke="rgba(46,54,65,.16)" stroke-dasharray="6 5"/><text x="158" y="217" font-family="system-ui,sans-serif" font-size="14" font-weight="700" letter-spacing=".08em" fill="rgba(46,54,65,.5)">ИНСТРУМЕНТЫ API</text><rect x="152" y="225" width="536" height="52" rx="12" fill="rgba(32,186,114,.10)" stroke="rgba(32,186,114,.32)"/><g transform="translate(170 241.0) scale(0.8333)" fill="none" stroke="#128a53" stroke-width="2.28" stroke-linecap="round" stroke-linejoin="round"><polygon points="12 2 2 7 12 12 22 7 12 2"/><path d="M2 17l10 5 10-5"/><path d="M2 12l10 5 10-5"/></g><text x="200" y="256.9" font-family="ui-monospace,SFMono-Regular,Menlo,monospace" font-size="17" font-weight="700" fill="#2E3641">create_dashboard</text><text x="387" y="256.4" font-family="system-ui,sans-serif" font-size="15.5" fill="rgba(46,54,65,.76)">пустой дашборд</text><rect x="152" y="285" width="536" height="52" rx="12" fill="rgba(32,186,114,.10)" stroke="rgba(32,186,114,.32)"/><g transform="translate(170 301.0) scale(0.8333)" fill="none" stroke="#128a53" stroke-width="2.28" stroke-linecap="round" stroke-linejoin="round"><line x1="8" y1="6" x2="21" y2="6"/><line x1="8" y1="12" x2="21" y2="12"/><line x1="8" y1="18" x2="21" y2="18"/><line x1="3" y1="6" x2="3.01" y2="6"/><line x1="3" y1="12" x2="3.01" y2="12"/><line x1="3" y1="18" x2="3.01" y2="18"/></g><text x="200" y="316.9" font-family="ui-monospace,SFMono-Regular,Menlo,monospace" font-size="17" font-weight="700" fill="#2E3641">create_card</text><text x="387" y="316.4" font-family="system-ui,sans-serif" font-size="15.5" fill="rgba(46,54,65,.76)">карточка из SQL и тип диаграммы</text><rect x="152" y="345" width="536" height="52" rx="12" fill="rgba(32,186,114,.10)" stroke="rgba(32,186,114,.32)"/><g transform="translate(170 361.0) scale(0.8333)" fill="none" stroke="#128a53" stroke-width="2.28" stroke-linecap="round" stroke-linejoin="round"><circle cx="12" cy="12" r="10"/><line x1="12" y1="8" x2="12" y2="16"/><line x1="8" y1="12" x2="16" y2="12"/></g><text x="200" y="376.9" font-family="ui-monospace,SFMono-Regular,Menlo,monospace" font-size="17" font-weight="700" fill="#2E3641">add_card</text><text x="387" y="376.4" font-family="system-ui,sans-serif" font-size="15.5" fill="rgba(46,54,65,.76)">карточка на дашборд</text><path d="M420 135 L420 195" fill="none" stroke="#20BA72" stroke-width="2" stroke-linecap="round" marker-end="url(#нак-20BA72)"/><text x="410" y="169.0" text-anchor="end" font-family="system-ui,sans-serif" font-size="14" font-weight="600" fill="rgba(46,54,65,.6)">вызов инструментов</text></svg>