<?xml version="1.0" encoding="utf-8" standalone="no"?>
<!DOCTYPE svg PUBLIC "-//W3C//DTD SVG 1.1//EN"
  "http://www.w3.org/Graphics/SVG/1.1/DTD/svg11.dtd">
<svg xmlns:xlink="http://www.w3.org/1999/xlink" width="686.285428pt" height="278.523658pt" viewBox="0 0 686.285428 278.523658" xmlns="http://www.w3.org/2000/svg" version="1.1">
 <metadata>
  <rdf:RDF xmlns:dc="http://purl.org/dc/elements/1.1/" xmlns:cc="http://creativecommons.org/ns#" xmlns:rdf="http://www.w3.org/1999/02/22-rdf-syntax-ns#">
   <cc:Work>
    <dc:type rdf:resource="http://purl.org/dc/dcmitype/StillImage"/>
    <dc:date>2026-08-17T21:58:43.592503</dc:date>
    <dc:format>image/svg+xml</dc:format>
    <dc:creator>
     <cc:Agent>
      <dc:title>Matplotlib v3.10.7+dfsg1, https://matplotlib.org/</dc:title>
     </cc:Agent>
    </dc:creator>
   </cc:Work>
  </rdf:RDF>
 </metadata>
 <defs>
  <style type="text/css">*{stroke-linejoin: round; stroke-linecap: butt}</style>
 </defs>
 <g id="figure_1">
  <g id="patch_1">
   <path d="M 0 278.523658 
L 686.285428 278.523658 
L 686.285428 0 
L 0 0 
L 0 278.523658 
z
" style="fill: none"/>
  </g>
  <g id="axes_1">
   <g id="patch_2">
    <path d="M 47.449531 240.483501 
L 340.778902 240.483501 
L 340.778902 26.698047 
L 47.449531 26.698047 
L 47.449531 240.483501 
z
" style="fill: none"/>
   </g>
   <g id="matplotlib.axis_1">
    <g id="xtick_1">
     <g id="line2d_1">
      <path d="M 60.782684 240.483501 
L 60.782684 26.698047 
" clip-path="url(#p9b3890a4a2)" style="fill: none; stroke: #b0b0b0; stroke-opacity: 0.18; stroke-width: 0.8; stroke-linecap: square"/>
     </g>
     <g id="line2d_2">
      <defs>
       <path id="md159951fa8" d="M 0 0 
L 0 3.5 
" style="stroke: #2e3641; stroke-width: 0.8"/>
      </defs>
      <g>
       <use xlink:href="#md159951fa8" x="60.782684" y="240.483501" style="fill: #2e3641; stroke: #2e3641; stroke-width: 0.8"/>
      </g>
     </g>
     <g id="text_1">
      <!-- 0 -->
      <g style="fill: #2e3641" transform="translate(57.601434 255.081939) scale(0.1 -0.1)">
       <defs>
        <path id="DejaVuSans-30" d="M 2034 4250 
Q 1547 4250 1301 3770 
Q 1056 3291 1056 2328 
Q 1056 1369 1301 889 
Q 1547 409 2034 409 
Q 2525 409 2770 889 
Q 3016 1369 3016 2328 
Q 3016 3291 2770 3770 
Q 2525 4250 2034 4250 
z
M 2034 4750 
Q 2819 4750 3233 4129 
Q 3647 3509 3647 2328 
Q 3647 1150 3233 529 
Q 2819 -91 2034 -91 
Q 1250 -91 836 529 
Q 422 1150 422 2328 
Q 422 3509 836 4129 
Q 1250 4750 2034 4750 
z
" transform="scale(0.015625)"/>
       </defs>
       <use xlink:href="#DejaVuSans-30"/>
      </g>
     </g>
    </g>
    <g id="xtick_2">
     <g id="line2d_3">
      <path d="M 106.087317 240.483501 
L 106.087317 26.698047 
" clip-path="url(#p9b3890a4a2)" style="fill: none; stroke: #b0b0b0; stroke-opacity: 0.18; stroke-width: 0.8; stroke-linecap: square"/>
     </g>
     <g id="line2d_4">
      <g>
       <use xlink:href="#md159951fa8" x="106.087317" y="240.483501" style="fill: #2e3641; stroke: #2e3641; stroke-width: 0.8"/>
      </g>
     </g>
     <g id="text_2">
      <!-- 100 -->
      <g style="fill: #2e3641" transform="translate(96.543567 255.081939) scale(0.1 -0.1)">
       <defs>
        <path id="DejaVuSans-31" d="M 794 531 
L 1825 531 
L 1825 4091 
L 703 3866 
L 703 4441 
L 1819 4666 
L 2450 4666 
L 2450 531 
L 3481 531 
L 3481 0 
L 794 0 
L 794 531 
z
" transform="scale(0.015625)"/>
       </defs>
       <use xlink:href="#DejaVuSans-31"/>
       <use xlink:href="#DejaVuSans-30" transform="translate(63.623047 0)"/>
       <use xlink:href="#DejaVuSans-30" transform="translate(127.246094 0)"/>
      </g>
     </g>
    </g>
    <g id="xtick_3">
     <g id="line2d_5">
      <path d="M 151.391949 240.483501 
L 151.391949 26.698047 
" clip-path="url(#p9b3890a4a2)" style="fill: none; stroke: #b0b0b0; stroke-opacity: 0.18; stroke-width: 0.8; stroke-linecap: square"/>
     </g>
     <g id="line2d_6">
      <g>
       <use xlink:href="#md159951fa8" x="151.391949" y="240.483501" style="fill: #2e3641; stroke: #2e3641; stroke-width: 0.8"/>
      </g>
     </g>
     <g id="text_3">
      <!-- 200 -->
      <g style="fill: #2e3641" transform="translate(141.848199 255.081939) scale(0.1 -0.1)">
       <defs>
        <path id="DejaVuSans-32" d="M 1228 531 
L 3431 531 
L 3431 0 
L 469 0 
L 469 531 
Q 828 903 1448 1529 
Q 2069 2156 2228 2338 
Q 2531 2678 2651 2914 
Q 2772 3150 2772 3378 
Q 2772 3750 2511 3984 
Q 2250 4219 1831 4219 
Q 1534 4219 1204 4116 
Q 875 4013 500 3803 
L 500 4441 
Q 881 4594 1212 4672 
Q 1544 4750 1819 4750 
Q 2544 4750 2975 4387 
Q 3406 4025 3406 3419 
Q 3406 3131 3298 2873 
Q 3191 2616 2906 2266 
Q 2828 2175 2409 1742 
Q 1991 1309 1228 531 
z
" transform="scale(0.015625)"/>
       </defs>
       <use xlink:href="#DejaVuSans-32"/>
       <use xlink:href="#DejaVuSans-30" transform="translate(63.623047 0)"/>
       <use xlink:href="#DejaVuSans-30" transform="translate(127.246094 0)"/>
      </g>
     </g>
    </g>
    <g id="xtick_4">
     <g id="line2d_7">
      <path d="M 196.696581 240.483501 
L 196.696581 26.698047 
" clip-path="url(#p9b3890a4a2)" style="fill: none; stroke: #b0b0b0; stroke-opacity: 0.18; stroke-width: 0.8; stroke-linecap: square"/>
     </g>
     <g id="line2d_8">
      <g>
       <use xlink:href="#md159951fa8" x="196.696581" y="240.483501" style="fill: #2e3641; stroke: #2e3641; stroke-width: 0.8"/>
      </g>
     </g>
     <g id="text_4">
      <!-- 300 -->
      <g style="fill: #2e3641" transform="translate(187.152831 255.081939) scale(0.1 -0.1)">
       <defs>
        <path id="DejaVuSans-33" d="M 2597 2516 
Q 3050 2419 3304 2112 
Q 3559 1806 3559 1356 
Q 3559 666 3084 287 
Q 2609 -91 1734 -91 
Q 1441 -91 1130 -33 
Q 819 25 488 141 
L 488 750 
Q 750 597 1062 519 
Q 1375 441 1716 441 
Q 2309 441 2620 675 
Q 2931 909 2931 1356 
Q 2931 1769 2642 2001 
Q 2353 2234 1838 2234 
L 1294 2234 
L 1294 2753 
L 1863 2753 
Q 2328 2753 2575 2939 
Q 2822 3125 2822 3475 
Q 2822 3834 2567 4026 
Q 2313 4219 1838 4219 
Q 1578 4219 1281 4162 
Q 984 4106 628 3988 
L 628 4550 
Q 988 4650 1302 4700 
Q 1616 4750 1894 4750 
Q 2613 4750 3031 4423 
Q 3450 4097 3450 3541 
Q 3450 3153 3228 2886 
Q 3006 2619 2597 2516 
z
" transform="scale(0.015625)"/>
       </defs>
       <use xlink:href="#DejaVuSans-33"/>
       <use xlink:href="#DejaVuSans-30" transform="translate(63.623047 0)"/>
       <use xlink:href="#DejaVuSans-30" transform="translate(127.246094 0)"/>
      </g>
     </g>
    </g>
    <g id="xtick_5">
     <g id="line2d_9">
      <path d="M 242.001213 240.483501 
L 242.001213 26.698047 
" clip-path="url(#p9b3890a4a2)" style="fill: none; stroke: #b0b0b0; stroke-opacity: 0.18; stroke-width: 0.8; stroke-linecap: square"/>
     </g>
     <g id="line2d_10">
      <g>
       <use xlink:href="#md159951fa8" x="242.001213" y="240.483501" style="fill: #2e3641; stroke: #2e3641; stroke-width: 0.8"/>
      </g>
     </g>
     <g id="text_5">
      <!-- 400 -->
      <g style="fill: #2e3641" transform="translate(232.457463 255.081939) scale(0.1 -0.1)">
       <defs>
        <path id="DejaVuSans-34" d="M 2419 4116 
L 825 1625 
L 2419 1625 
L 2419 4116 
z
M 2253 4666 
L 3047 4666 
L 3047 1625 
L 3713 1625 
L 3713 1100 
L 3047 1100 
L 3047 0 
L 2419 0 
L 2419 1100 
L 313 1100 
L 313 1709 
L 2253 4666 
z
" transform="scale(0.015625)"/>
       </defs>
       <use xlink:href="#DejaVuSans-34"/>
       <use xlink:href="#DejaVuSans-30" transform="translate(63.623047 0)"/>
       <use xlink:href="#DejaVuSans-30" transform="translate(127.246094 0)"/>
      </g>
     </g>
    </g>
    <g id="xtick_6">
     <g id="line2d_11">
      <path d="M 287.305845 240.483501 
L 287.305845 26.698047 
" clip-path="url(#p9b3890a4a2)" style="fill: none; stroke: #b0b0b0; stroke-opacity: 0.18; stroke-width: 0.8; stroke-linecap: square"/>
     </g>
     <g id="line2d_12">
      <g>
       <use xlink:href="#md159951fa8" x="287.305845" y="240.483501" style="fill: #2e3641; stroke: #2e3641; stroke-width: 0.8"/>
      </g>
     </g>
     <g id="text_6">
      <!-- 500 -->
      <g style="fill: #2e3641" transform="translate(277.762095 255.081939) scale(0.1 -0.1)">
       <defs>
        <path id="DejaVuSans-35" d="M 691 4666 
L 3169 4666 
L 3169 4134 
L 1269 4134 
L 1269 2991 
Q 1406 3038 1543 3061 
Q 1681 3084 1819 3084 
Q 2600 3084 3056 2656 
Q 3513 2228 3513 1497 
Q 3513 744 3044 326 
Q 2575 -91 1722 -91 
Q 1428 -91 1123 -41 
Q 819 9 494 109 
L 494 744 
Q 775 591 1075 516 
Q 1375 441 1709 441 
Q 2250 441 2565 725 
Q 2881 1009 2881 1497 
Q 2881 1984 2565 2268 
Q 2250 2553 1709 2553 
Q 1456 2553 1204 2497 
Q 953 2441 691 2322 
L 691 4666 
z
" transform="scale(0.015625)"/>
       </defs>
       <use xlink:href="#DejaVuSans-35"/>
       <use xlink:href="#DejaVuSans-30" transform="translate(63.623047 0)"/>
       <use xlink:href="#DejaVuSans-30" transform="translate(127.246094 0)"/>
      </g>
     </g>
    </g>
    <g id="xtick_7">
     <g id="line2d_13">
      <path d="M 332.610477 240.483501 
L 332.610477 26.698047 
" clip-path="url(#p9b3890a4a2)" style="fill: none; stroke: #b0b0b0; stroke-opacity: 0.18; stroke-width: 0.8; stroke-linecap: square"/>
     </g>
     <g id="line2d_14">
      <g>
       <use xlink:href="#md159951fa8" x="332.610477" y="240.483501" style="fill: #2e3641; stroke: #2e3641; stroke-width: 0.8"/>
      </g>
     </g>
     <g id="text_7">
      <!-- 600 -->
      <g style="fill: #2e3641" transform="translate(323.066727 255.081939) scale(0.1 -0.1)">
       <defs>
        <path id="DejaVuSans-36" d="M 2113 2584 
Q 1688 2584 1439 2293 
Q 1191 2003 1191 1497 
Q 1191 994 1439 701 
Q 1688 409 2113 409 
Q 2538 409 2786 701 
Q 3034 994 3034 1497 
Q 3034 2003 2786 2293 
Q 2538 2584 2113 2584 
z
M 3366 4563 
L 3366 3988 
Q 3128 4100 2886 4159 
Q 2644 4219 2406 4219 
Q 1781 4219 1451 3797 
Q 1122 3375 1075 2522 
Q 1259 2794 1537 2939 
Q 1816 3084 2150 3084 
Q 2853 3084 3261 2657 
Q 3669 2231 3669 1497 
Q 3669 778 3244 343 
Q 2819 -91 2113 -91 
Q 1303 -91 875 529 
Q 447 1150 447 2328 
Q 447 3434 972 4092 
Q 1497 4750 2381 4750 
Q 2619 4750 2861 4703 
Q 3103 4656 3366 4563 
z
" transform="scale(0.015625)"/>
       </defs>
       <use xlink:href="#DejaVuSans-36"/>
       <use xlink:href="#DejaVuSans-30" transform="translate(63.623047 0)"/>
       <use xlink:href="#DejaVuSans-30" transform="translate(127.246094 0)"/>
      </g>
     </g>
    </g>
    <g id="text_8">
     <!-- заявок за месяц -->
     <g style="fill: #2e3641" transform="translate(149.31449 269.139986) scale(0.105 -0.105)">
      <defs>
       <path id="DejaVuSans-437" d="M 2206 1888 
Q 2594 1813 2809 1584 
Q 3025 1356 3025 1019 
Q 3025 478 2622 193 
Q 2219 -91 1475 -91 
Q 1225 -91 961 -47 
Q 697 -3 416 84 
L 416 619 
Q 638 503 903 445 
Q 1169 388 1459 388 
Q 1931 388 2195 563 
Q 2459 738 2459 1019 
Q 2459 1294 2225 1461 
Q 1991 1628 1563 1628 
L 1100 1628 
L 1100 2103 
L 1584 2103 
Q 1947 2103 2158 2242 
Q 2369 2381 2369 2600 
Q 2369 2800 2151 2944 
Q 1934 3088 1563 3088 
Q 1341 3088 1089 3047 
Q 838 3006 534 2916 
L 534 3438 
Q 841 3513 1106 3550 
Q 1372 3588 1609 3588 
Q 2222 3588 2576 3342 
Q 2931 3097 2931 2656 
Q 2931 2366 2743 2164 
Q 2556 1963 2206 1888 
z
" transform="scale(0.015625)"/>
       <path id="DejaVuSans-430" d="M 2194 1759 
Q 1497 1759 1228 1600 
Q 959 1441 959 1056 
Q 959 750 1161 570 
Q 1363 391 1709 391 
Q 2188 391 2477 730 
Q 2766 1069 2766 1631 
L 2766 1759 
L 2194 1759 
z
M 3341 1997 
L 3341 0 
L 2766 0 
L 2766 531 
Q 2569 213 2275 61 
Q 1981 -91 1556 -91 
Q 1019 -91 701 211 
Q 384 513 384 1019 
Q 384 1609 779 1909 
Q 1175 2209 1959 2209 
L 2766 2209 
L 2766 2266 
Q 2766 2663 2505 2880 
Q 2244 3097 1772 3097 
Q 1472 3097 1187 3025 
Q 903 2953 641 2809 
L 641 3341 
Q 956 3463 1253 3523 
Q 1550 3584 1831 3584 
Q 2591 3584 2966 3190 
Q 3341 2797 3341 1997 
z
" transform="scale(0.015625)"/>
       <path id="DejaVuSans-44f" d="M 1181 2491 
Q 1181 2231 1381 2084 
Q 1581 1938 1953 1938 
L 2728 1938 
L 2728 3041 
L 1953 3041 
Q 1581 3041 1381 2897 
Q 1181 2753 1181 2491 
z
M 363 0 
L 1431 1534 
Q 1069 1616 828 1830 
Q 588 2044 588 2491 
Q 588 2997 923 3248 
Q 1259 3500 1938 3500 
L 3306 3500 
L 3306 0 
L 2728 0 
L 2728 1478 
L 2013 1478 
L 981 0 
L 363 0 
z
" transform="scale(0.015625)"/>
       <path id="DejaVuSans-432" d="M 1156 1613 
L 1156 459 
L 1975 459 
Q 2369 459 2575 607 
Q 2781 756 2781 1038 
Q 2781 1319 2575 1466 
Q 2369 1613 1975 1613 
L 1156 1613 
z
M 1156 3041 
L 1156 2072 
L 1913 2072 
Q 2238 2072 2444 2201 
Q 2650 2331 2650 2563 
Q 2650 2794 2444 2917 
Q 2238 3041 1913 3041 
L 1156 3041 
z
M 581 3500 
L 1950 3500 
Q 2566 3500 2897 3275 
Q 3228 3050 3228 2634 
Q 3228 2313 3059 2123 
Q 2891 1934 2559 1888 
Q 2956 1813 3175 1575 
Q 3394 1338 3394 981 
Q 3394 513 3033 256 
Q 2672 0 2003 0 
L 581 0 
L 581 3500 
z
" transform="scale(0.015625)"/>
       <path id="DejaVuSans-43e" d="M 1959 3097 
Q 1497 3097 1228 2736 
Q 959 2375 959 1747 
Q 959 1119 1226 758 
Q 1494 397 1959 397 
Q 2419 397 2687 759 
Q 2956 1122 2956 1747 
Q 2956 2369 2687 2733 
Q 2419 3097 1959 3097 
z
M 1959 3584 
Q 2709 3584 3137 3096 
Q 3566 2609 3566 1747 
Q 3566 888 3137 398 
Q 2709 -91 1959 -91 
Q 1206 -91 779 398 
Q 353 888 353 1747 
Q 353 2609 779 3096 
Q 1206 3584 1959 3584 
z
" transform="scale(0.015625)"/>
       <path id="DejaVuSans-43a" d="M 581 3500 
L 1153 3500 
L 1153 1856 
L 2775 3500 
L 3481 3500 
L 2144 2147 
L 3653 0 
L 3009 0 
L 1769 1766 
L 1153 1141 
L 1153 0 
L 581 0 
L 581 3500 
z
" transform="scale(0.015625)"/>
       <path id="DejaVuSans-20" transform="scale(0.015625)"/>
       <path id="DejaVuSans-43c" d="M 581 3500 
L 1422 3500 
L 2416 1156 
L 3413 3500 
L 4247 3500 
L 4247 0 
L 3669 0 
L 3669 2950 
L 2703 672 
L 2128 672 
L 1159 2950 
L 1159 0 
L 581 0 
L 581 3500 
z
" transform="scale(0.015625)"/>
       <path id="DejaVuSans-435" d="M 3597 1894 
L 3597 1613 
L 953 1613 
Q 991 1019 1311 708 
Q 1631 397 2203 397 
Q 2534 397 2845 478 
Q 3156 559 3463 722 
L 3463 178 
Q 3153 47 2828 -22 
Q 2503 -91 2169 -91 
Q 1331 -91 842 396 
Q 353 884 353 1716 
Q 353 2575 817 3079 
Q 1281 3584 2069 3584 
Q 2775 3584 3186 3129 
Q 3597 2675 3597 1894 
z
M 3022 2063 
Q 3016 2534 2758 2815 
Q 2500 3097 2075 3097 
Q 1594 3097 1305 2825 
Q 1016 2553 972 2059 
L 3022 2063 
z
" transform="scale(0.015625)"/>
       <path id="DejaVuSans-441" d="M 3122 3366 
L 3122 2828 
Q 2878 2963 2633 3030 
Q 2388 3097 2138 3097 
Q 1578 3097 1268 2742 
Q 959 2388 959 1747 
Q 959 1106 1268 751 
Q 1578 397 2138 397 
Q 2388 397 2633 464 
Q 2878 531 3122 666 
L 3122 134 
Q 2881 22 2623 -34 
Q 2366 -91 2075 -91 
Q 1284 -91 818 406 
Q 353 903 353 1747 
Q 353 2603 823 3093 
Q 1294 3584 2113 3584 
Q 2378 3584 2631 3529 
Q 2884 3475 3122 3366 
z
" transform="scale(0.015625)"/>
       <path id="DejaVuSans-446" d="M 3603 0 
L 581 0 
L 581 3500 
L 1159 3500 
L 1159 459 
L 3025 459 
L 3025 3500 
L 3603 3500 
L 3603 459 
L 4063 459 
L 4063 -884 
L 3603 -884 
L 3603 0 
z
" transform="scale(0.015625)"/>
      </defs>
      <use xlink:href="#DejaVuSans-437"/>
      <use xlink:href="#DejaVuSans-430" transform="translate(53.173828 0)"/>
      <use xlink:href="#DejaVuSans-44f" transform="translate(114.453125 0)"/>
      <use xlink:href="#DejaVuSans-432" transform="translate(174.609375 0)"/>
      <use xlink:href="#DejaVuSans-43e" transform="translate(233.544922 0)"/>
      <use xlink:href="#DejaVuSans-43a" transform="translate(294.726562 0)"/>
      <use xlink:href="#DejaVuSans-20" transform="translate(355.126953 0)"/>
      <use xlink:href="#DejaVuSans-437" transform="translate(386.914062 0)"/>
      <use xlink:href="#DejaVuSans-430" transform="translate(440.087891 0)"/>
      <use xlink:href="#DejaVuSans-20" transform="translate(501.367188 0)"/>
      <use xlink:href="#DejaVuSans-43c" transform="translate(533.154297 0)"/>
      <use xlink:href="#DejaVuSans-435" transform="translate(608.59375 0)"/>
      <use xlink:href="#DejaVuSans-441" transform="translate(670.117188 0)"/>
      <use xlink:href="#DejaVuSans-44f" transform="translate(725.097656 0)"/>
      <use xlink:href="#DejaVuSans-446" transform="translate(785.253906 0)"/>
     </g>
    </g>
   </g>
   <g id="matplotlib.axis_2">
    <g id="ytick_1">
     <g id="line2d_15">
      <path d="M 47.449531 217.961112 
L 340.778902 217.961112 
" clip-path="url(#p9b3890a4a2)" style="fill: none; stroke: #b0b0b0; stroke-opacity: 0.18; stroke-width: 0.8; stroke-linecap: square"/>
     </g>
     <g id="line2d_16">
      <defs>
       <path id="mccf4fa2e28" d="M 0 0 
L -3.5 0 
" style="stroke: #2e3641; stroke-width: 0.8"/>
      </defs>
      <g>
       <use xlink:href="#mccf4fa2e28" x="47.449531" y="217.961112" style="fill: #2e3641; stroke: #2e3641; stroke-width: 0.8"/>
      </g>
     </g>
     <g id="text_9">
      <!-- 0 -->
      <g style="fill: #2e3641" transform="translate(34.087031 221.76033) scale(0.1 -0.1)">
       <use xlink:href="#DejaVuSans-30"/>
      </g>
     </g>
    </g>
    <g id="ytick_2">
     <g id="line2d_17">
      <path d="M 47.449531 187.74214 
L 340.778902 187.74214 
" clip-path="url(#p9b3890a4a2)" style="fill: none; stroke: #b0b0b0; stroke-opacity: 0.18; stroke-width: 0.8; stroke-linecap: square"/>
     </g>
     <g id="line2d_18">
      <g>
       <use xlink:href="#mccf4fa2e28" x="47.449531" y="187.74214" style="fill: #2e3641; stroke: #2e3641; stroke-width: 0.8"/>
      </g>
     </g>
     <g id="text_10">
      <!-- 50 -->
      <g style="fill: #2e3641" transform="translate(27.724531 191.541359) scale(0.1 -0.1)">
       <use xlink:href="#DejaVuSans-35"/>
       <use xlink:href="#DejaVuSans-30" transform="translate(63.623047 0)"/>
      </g>
     </g>
    </g>
    <g id="ytick_3">
     <g id="line2d_19">
      <path d="M 47.449531 157.523169 
L 340.778902 157.523169 
" clip-path="url(#p9b3890a4a2)" style="fill: none; stroke: #b0b0b0; stroke-opacity: 0.18; stroke-width: 0.8; stroke-linecap: square"/>
     </g>
     <g id="line2d_20">
      <g>
       <use xlink:href="#mccf4fa2e28" x="47.449531" y="157.523169" style="fill: #2e3641; stroke: #2e3641; stroke-width: 0.8"/>
      </g>
     </g>
     <g id="text_11">
      <!-- 100 -->
      <g style="fill: #2e3641" transform="translate(21.362031 161.322388) scale(0.1 -0.1)">
       <use xlink:href="#DejaVuSans-31"/>
       <use xlink:href="#DejaVuSans-30" transform="translate(63.623047 0)"/>
       <use xlink:href="#DejaVuSans-30" transform="translate(127.246094 0)"/>
      </g>
     </g>
    </g>
    <g id="ytick_4">
     <g id="line2d_21">
      <path d="M 47.449531 127.304198 
L 340.778902 127.304198 
" clip-path="url(#p9b3890a4a2)" style="fill: none; stroke: #b0b0b0; stroke-opacity: 0.18; stroke-width: 0.8; stroke-linecap: square"/>
     </g>
     <g id="line2d_22">
      <g>
       <use xlink:href="#mccf4fa2e28" x="47.449531" y="127.304198" style="fill: #2e3641; stroke: #2e3641; stroke-width: 0.8"/>
      </g>
     </g>
     <g id="text_12">
      <!-- 150 -->
      <g style="fill: #2e3641" transform="translate(21.362031 131.103416) scale(0.1 -0.1)">
       <use xlink:href="#DejaVuSans-31"/>
       <use xlink:href="#DejaVuSans-35" transform="translate(63.623047 0)"/>
       <use xlink:href="#DejaVuSans-30" transform="translate(127.246094 0)"/>
      </g>
     </g>
    </g>
    <g id="ytick_5">
     <g id="line2d_23">
      <path d="M 47.449531 97.085226 
L 340.778902 97.085226 
" clip-path="url(#p9b3890a4a2)" style="fill: none; stroke: #b0b0b0; stroke-opacity: 0.18; stroke-width: 0.8; stroke-linecap: square"/>
     </g>
     <g id="line2d_24">
      <g>
       <use xlink:href="#mccf4fa2e28" x="47.449531" y="97.085226" style="fill: #2e3641; stroke: #2e3641; stroke-width: 0.8"/>
      </g>
     </g>
     <g id="text_13">
      <!-- 200 -->
      <g style="fill: #2e3641" transform="translate(21.362031 100.884445) scale(0.1 -0.1)">
       <use xlink:href="#DejaVuSans-32"/>
       <use xlink:href="#DejaVuSans-30" transform="translate(63.623047 0)"/>
       <use xlink:href="#DejaVuSans-30" transform="translate(127.246094 0)"/>
      </g>
     </g>
    </g>
    <g id="ytick_6">
     <g id="line2d_25">
      <path d="M 47.449531 66.866255 
L 340.778902 66.866255 
" clip-path="url(#p9b3890a4a2)" style="fill: none; stroke: #b0b0b0; stroke-opacity: 0.18; stroke-width: 0.8; stroke-linecap: square"/>
     </g>
     <g id="line2d_26">
      <g>
       <use xlink:href="#mccf4fa2e28" x="47.449531" y="66.866255" style="fill: #2e3641; stroke: #2e3641; stroke-width: 0.8"/>
      </g>
     </g>
     <g id="text_14">
      <!-- 250 -->
      <g style="fill: #2e3641" transform="translate(21.362031 70.665474) scale(0.1 -0.1)">
       <use xlink:href="#DejaVuSans-32"/>
       <use xlink:href="#DejaVuSans-35" transform="translate(63.623047 0)"/>
       <use xlink:href="#DejaVuSans-30" transform="translate(127.246094 0)"/>
      </g>
     </g>
    </g>
    <g id="ytick_7">
     <g id="line2d_27">
      <path d="M 47.449531 36.647284 
L 340.778902 36.647284 
" clip-path="url(#p9b3890a4a2)" style="fill: none; stroke: #b0b0b0; stroke-opacity: 0.18; stroke-width: 0.8; stroke-linecap: square"/>
     </g>
     <g id="line2d_28">
      <g>
       <use xlink:href="#mccf4fa2e28" x="47.449531" y="36.647284" style="fill: #2e3641; stroke: #2e3641; stroke-width: 0.8"/>
      </g>
     </g>
     <g id="text_15">
      <!-- 300 -->
      <g style="fill: #2e3641" transform="translate(21.362031 40.446502) scale(0.1 -0.1)">
       <use xlink:href="#DejaVuSans-33"/>
       <use xlink:href="#DejaVuSans-30" transform="translate(63.623047 0)"/>
       <use xlink:href="#DejaVuSans-30" transform="translate(127.246094 0)"/>
      </g>
     </g>
    </g>
    <g id="text_16">
     <!-- выдач за месяц -->
     <g style="fill: #2e3641" transform="translate(15.178359 176.933626) rotate(-90) scale(0.105 -0.105)">
      <defs>
       <path id="DejaVuSans-44b" d="M 3909 3500 
L 4484 3500 
L 4484 0 
L 3909 0 
L 3909 3500 
z
M 4197 3584 
L 4197 3584 
z
M 2781 1038 
Q 2781 1319 2576 1466 
Q 2372 1613 1978 1613 
L 1159 1613 
L 1159 459 
L 1978 459 
Q 2372 459 2576 607 
Q 2781 756 2781 1038 
z
M 581 3500 
L 1159 3500 
L 1159 2072 
L 2003 2072 
Q 2672 2072 3033 1817 
Q 3394 1563 3394 1038 
Q 3394 513 3033 256 
Q 2672 0 2003 0 
L 581 0 
L 581 3500 
z
" transform="scale(0.015625)"/>
       <path id="DejaVuSans-434" d="M 1384 459 
L 3053 459 
L 3053 3041 
L 1844 3041 
L 1844 2603 
Q 1844 1316 1475 628 
L 1384 459 
z
M 550 459 
Q 834 584 959 850 
Q 1266 1509 1266 2838 
L 1266 3500 
L 3631 3500 
L 3631 459 
L 4091 459 
L 4091 -884 
L 3631 -884 
L 3631 0 
L 794 0 
L 794 -884 
L 334 -884 
L 334 459 
L 550 459 
z
" transform="scale(0.015625)"/>
       <path id="DejaVuSans-447" d="M 2625 0 
L 2625 1472 
L 1553 1472 
Q 1075 1472 756 1769 
Q 469 2038 469 2613 
L 469 3500 
L 1044 3500 
L 1044 2666 
Q 1044 2300 1206 2116 
Q 1372 1931 1697 1931 
L 2625 1931 
L 2625 3500 
L 3200 3500 
L 3200 0 
L 2625 0 
z
" transform="scale(0.015625)"/>
      </defs>
      <use xlink:href="#DejaVuSans-432"/>
      <use xlink:href="#DejaVuSans-44b" transform="translate(58.935547 0)"/>
      <use xlink:href="#DejaVuSans-434" transform="translate(137.890625 0)"/>
      <use xlink:href="#DejaVuSans-430" transform="translate(207.03125 0)"/>
      <use xlink:href="#DejaVuSans-447" transform="translate(268.310547 0)"/>
      <use xlink:href="#DejaVuSans-20" transform="translate(327.392578 0)"/>
      <use xlink:href="#DejaVuSans-437" transform="translate(359.179688 0)"/>
      <use xlink:href="#DejaVuSans-430" transform="translate(412.353516 0)"/>
      <use xlink:href="#DejaVuSans-20" transform="translate(473.632812 0)"/>
      <use xlink:href="#DejaVuSans-43c" transform="translate(505.419922 0)"/>
      <use xlink:href="#DejaVuSans-435" transform="translate(580.859375 0)"/>
      <use xlink:href="#DejaVuSans-441" transform="translate(642.382812 0)"/>
      <use xlink:href="#DejaVuSans-44f" transform="translate(697.363281 0)"/>
      <use xlink:href="#DejaVuSans-446" transform="translate(757.519531 0)"/>
     </g>
    </g>
   </g>
   <g id="line2d_29">
    <path d="M 60.782684 230.765981 
L 66.224788 226.799646 
L 71.666891 222.833311 
L 77.108995 218.866976 
L 82.551098 214.900641 
L 87.993201 210.934306 
L 93.435305 206.967971 
L 98.877408 203.001636 
L 104.319511 199.035301 
L 109.761615 195.068966 
L 115.203718 191.102631 
L 120.645821 187.136296 
L 126.087925 183.169961 
L 131.530028 179.203626 
L 136.972131 175.237291 
L 142.414235 171.270956 
L 147.856338 167.304621 
L 153.298441 163.338286 
L 158.740545 159.371951 
L 164.182648 155.405616 
L 169.624752 151.439281 
L 175.066855 147.472947 
L 180.508958 143.506612 
L 185.951062 139.540277 
L 191.393165 135.573942 
L 196.835268 131.607607 
L 202.277372 127.641272 
L 207.719475 123.674937 
L 213.161578 119.708602 
L 218.603682 115.742267 
L 224.045785 111.775932 
L 229.487888 107.809597 
L 234.929992 103.843262 
L 240.372095 99.876927 
L 245.814198 95.910592 
L 251.256302 91.944257 
L 256.698405 87.977922 
L 262.140508 84.011587 
L 267.582612 80.045252 
L 273.024715 76.078917 
L 278.466819 72.112582 
L 283.908922 68.146247 
L 289.351025 64.179912 
L 294.793129 60.213577 
L 300.235232 56.247242 
L 305.677335 52.280907 
L 311.119439 48.314572 
L 316.561542 44.348237 
L 322.003645 40.381902 
L 327.445749 36.415568 
" clip-path="url(#p9b3890a4a2)" style="fill: none; stroke: #128a53; stroke-width: 2.2; stroke-linecap: square"/>
   </g>
   <g id="line2d_30">
    <path d="M 60.782684 220.049987 
L 66.224788 216.335314 
L 71.666891 212.620642 
L 77.108995 208.905969 
L 82.551098 205.191296 
L 87.993201 201.476624 
L 93.435305 197.761951 
L 98.877408 194.047278 
L 104.319511 190.332606 
L 109.761615 186.617933 
L 115.203718 182.90326 
L 120.645821 179.188588 
L 126.087925 175.473915 
L 131.530028 171.759242 
L 136.972131 168.04457 
L 142.414235 164.329897 
L 147.856338 160.615224 
L 153.298441 156.900552 
L 158.740545 153.185879 
L 164.182648 149.471206 
L 169.624752 145.756534 
L 175.066855 142.041861 
L 180.508958 138.327189 
L 185.951062 134.612516 
L 191.393165 130.897843 
L 196.835268 127.183171 
L 202.277372 123.468498 
L 207.719475 119.753825 
L 213.161578 116.039153 
L 218.603682 112.32448 
L 224.045785 108.609807 
L 229.487888 104.895135 
L 234.929992 101.180462 
L 240.372095 97.465789 
L 245.814198 93.751117 
L 251.256302 90.036444 
L 256.698405 86.321771 
L 262.140508 82.607099 
L 267.582612 78.892426 
L 273.024715 75.177753 
L 278.466819 71.463081 
L 283.908922 67.748408 
L 289.351025 64.033735 
L 294.793129 60.319063 
L 300.235232 56.60439 
L 305.677335 52.889717 
L 311.119439 49.175045 
L 316.561542 45.460372 
L 322.003645 41.745699 
L 327.445749 38.031027 
" clip-path="url(#p9b3890a4a2)" style="fill: none; stroke-dasharray: 7.4,3.2; stroke-dashoffset: 0; stroke: #e4572e; stroke-width: 2"/>
   </g>
   <g id="patch_3">
    <path d="M 47.449531 240.483501 
L 47.449531 26.698047 
" style="fill: none; stroke: #c9d4cd; stroke-width: 0.8; stroke-linejoin: miter; stroke-linecap: square"/>
   </g>
   <g id="patch_4">
    <path d="M 47.449531 240.483501 
L 340.778902 240.483501 
" style="fill: none; stroke: #c9d4cd; stroke-width: 0.8; stroke-linejoin: miter; stroke-linecap: square"/>
   </g>
   <g id="PathCollection_1">
    <defs>
     <path id="m3f843993a3" d="M 0 3.674235 
C 0.974418 3.674235 1.909058 3.287094 2.598076 2.598076 
C 3.287094 1.909058 3.674235 0.974418 3.674235 0 
C 3.674235 -0.974418 3.287094 -1.909058 2.598076 -2.598076 
C 1.909058 -3.287094 0.974418 -3.674235 0 -3.674235 
C -0.974418 -3.674235 -1.909058 -3.287094 -2.598076 -2.598076 
C -3.287094 -1.909058 -3.674235 -0.974418 -3.674235 0 
C -3.674235 0.974418 -3.287094 1.909058 -2.598076 2.598076 
C -1.909058 3.287094 -0.974418 3.674235 0 3.674235 
z
" style="stroke: #20ba72"/>
    </defs>
    <g clip-path="url(#p9b3890a4a2)">
     <use xlink:href="#m3f843993a3" x="268.730946" y="83.1845" style="fill: #20ba72; stroke: #20ba72"/>
     <use xlink:href="#m3f843993a3" x="276.885779" y="71.096911" style="fill: #20ba72; stroke: #20ba72"/>
     <use xlink:href="#m3f843993a3" x="291.383262" y="59.009322" style="fill: #20ba72; stroke: #20ba72"/>
     <use xlink:href="#m3f843993a3" x="302.70942" y="57.800564" style="fill: #20ba72; stroke: #20ba72"/>
     <use xlink:href="#m3f843993a3" x="307.692929" y="53.569908" style="fill: #20ba72; stroke: #20ba72"/>
     <use xlink:href="#m3f843993a3" x="296.819817" y="55.987425" style="fill: #20ba72; stroke: #20ba72"/>
     <use xlink:href="#m3f843993a3" x="297.72591" y="56.591805" style="fill: #20ba72; stroke: #20ba72"/>
    </g>
   </g>
   <g id="PathCollection_2">
    <defs>
     <path id="mc12f42a786" d="M -0 6.324555 
L 6.324555 0 
L 0 -6.324555 
L -6.324555 -0 
z
" style="stroke: #e4572e"/>
    </defs>
    <g clip-path="url(#p9b3890a4a2)">
     <use xlink:href="#mc12f42a786" x="81.169769" y="205.873523" style="fill: #e4572e; stroke: #e4572e"/>
    </g>
   </g>
   <g id="text_17">
    <!-- Весь ряд -->
    <g style="fill: #2e3641" transform="translate(161.744099 16.698047) scale(0.125 -0.125)">
     <defs>
      <path id="DejaVuSans-Bold-412" d="M 2456 2859 
Q 2741 2859 2887 2984 
Q 3034 3109 3034 3353 
Q 3034 3594 2887 3720 
Q 2741 3847 2456 3847 
L 1791 3847 
L 1791 2859 
L 2456 2859 
z
M 2497 819 
Q 2859 819 3042 972 
Q 3225 1125 3225 1434 
Q 3225 1738 3044 1889 
Q 2863 2041 2497 2041 
L 1791 2041 
L 1791 819 
L 2497 819 
z
M 3616 2497 
Q 4003 2384 4215 2081 
Q 4428 1778 4428 1338 
Q 4428 663 3972 331 
Q 3516 0 2584 0 
L 588 0 
L 588 4666 
L 2394 4666 
Q 3366 4666 3802 4372 
Q 4238 4078 4238 3431 
Q 4238 3091 4078 2852 
Q 3919 2613 3616 2497 
z
" transform="scale(0.015625)"/>
      <path id="DejaVuSans-Bold-435" d="M 4031 1759 
L 4031 1441 
L 1416 1441 
Q 1456 1047 1700 850 
Q 1944 653 2381 653 
Q 2734 653 3104 758 
Q 3475 863 3866 1075 
L 3866 213 
Q 3469 63 3072 -14 
Q 2675 -91 2278 -91 
Q 1328 -91 801 392 
Q 275 875 275 1747 
Q 275 2603 792 3093 
Q 1309 3584 2216 3584 
Q 3041 3584 3536 3087 
Q 4031 2591 4031 1759 
z
M 2881 2131 
Q 2881 2450 2695 2645 
Q 2509 2841 2209 2841 
Q 1884 2841 1681 2658 
Q 1478 2475 1428 2131 
L 2881 2131 
z
" transform="scale(0.015625)"/>
      <path id="DejaVuSans-Bold-441" d="M 3366 3391 
L 3366 2478 
Q 3138 2634 2908 2709 
Q 2678 2784 2431 2784 
Q 1963 2784 1702 2511 
Q 1441 2238 1441 1747 
Q 1441 1256 1702 982 
Q 1963 709 2431 709 
Q 2694 709 2930 787 
Q 3166 866 3366 1019 
L 3366 103 
Q 3103 6 2833 -42 
Q 2563 -91 2291 -91 
Q 1344 -91 809 395 
Q 275 881 275 1747 
Q 275 2613 809 3098 
Q 1344 3584 2291 3584 
Q 2566 3584 2833 3536 
Q 3100 3488 3366 3391 
z
" transform="scale(0.015625)"/>
      <path id="DejaVuSans-Bold-44c" d="M 2719 1094 
Q 2719 1291 2594 1388 
Q 2472 1481 2222 1481 
L 1656 1481 
L 1656 700 
L 2222 700 
Q 2469 700 2594 800 
Q 2719 897 2719 1094 
z
M 538 3500 
L 1656 3500 
L 1656 2172 
L 2291 2172 
Q 3000 2172 3381 1913 
Q 3766 1650 3766 1081 
Q 3766 513 3381 256 
Q 3000 0 2291 0 
L 538 0 
L 538 3500 
z
" transform="scale(0.015625)"/>
      <path id="DejaVuSans-Bold-20" transform="scale(0.015625)"/>
      <path id="DejaVuSans-Bold-440" d="M 1656 506 
L 1656 -1331 
L 538 -1331 
L 538 3500 
L 1656 3500 
L 1656 2988 
Q 1888 3294 2169 3439 
Q 2450 3584 2816 3584 
Q 3463 3584 3878 3070 
Q 4294 2556 4294 1747 
Q 4294 938 3878 423 
Q 3463 -91 2816 -91 
Q 2450 -91 2169 54 
Q 1888 200 1656 506 
z
M 2400 2772 
Q 2041 2772 1848 2508 
Q 1656 2244 1656 1747 
Q 1656 1250 1848 986 
Q 2041 722 2400 722 
Q 2759 722 2948 984 
Q 3138 1247 3138 1747 
Q 3138 2247 2948 2509 
Q 2759 2772 2400 2772 
z
" transform="scale(0.015625)"/>
      <path id="DejaVuSans-Bold-44f" d="M 1528 2394 
Q 1528 2169 1651 2069 
Q 1775 1969 2059 1969 
L 2463 1969 
L 2463 2816 
L 2059 2816 
Q 1775 2816 1651 2719 
Q 1528 2622 1528 2394 
z
M 197 0 
L 1113 1497 
Q 847 1650 650 1917 
Q 453 2184 453 2516 
Q 453 3013 789 3256 
Q 1125 3500 1878 3500 
L 3581 3500 
L 3581 0 
L 2463 0 
L 2463 1278 
L 2069 1278 
L 1288 0 
L 197 0 
z
" transform="scale(0.015625)"/>
      <path id="DejaVuSans-Bold-434" d="M 547 800 
Q 903 919 1053 1314 
Q 1203 1709 1203 2838 
L 1203 3500 
L 4228 3500 
L 4228 800 
L 4809 800 
L 4809 -884 
L 4009 -884 
L 4009 0 
L 1159 0 
L 1159 -884 
L 359 -884 
L 359 800 
L 547 800 
z
M 3109 2700 
L 2322 2700 
L 2322 2603 
Q 2322 1456 2063 800 
L 3109 800 
L 3109 2700 
z
" transform="scale(0.015625)"/>
     </defs>
     <use xlink:href="#DejaVuSans-Bold-412"/>
     <use xlink:href="#DejaVuSans-Bold-435" transform="translate(76.220703 0)"/>
     <use xlink:href="#DejaVuSans-Bold-441" transform="translate(144.042969 0)"/>
     <use xlink:href="#DejaVuSans-Bold-44c" transform="translate(203.320312 0)"/>
     <use xlink:href="#DejaVuSans-Bold-20" transform="translate(266.552734 0)"/>
     <use xlink:href="#DejaVuSans-Bold-440" transform="translate(301.367188 0)"/>
     <use xlink:href="#DejaVuSans-Bold-44f" transform="translate(372.949219 0)"/>
     <use xlink:href="#DejaVuSans-Bold-434" transform="translate(437.158203 0)"/>
    </g>
   </g>
   <g id="legend_1">
    <g id="patch_5">
     <path d="M 54.099531 62.186484 
L 218.097734 62.186484 
Q 219.997734 62.186484 219.997734 60.286484 
L 219.997734 33.348047 
Q 219.997734 31.448047 218.097734 31.448047 
L 54.099531 31.448047 
Q 52.199531 31.448047 52.199531 33.348047 
L 52.199531 60.286484 
Q 52.199531 62.186484 54.099531 62.186484 
z
" style="fill: #ffffff; opacity: 0.8; stroke: #c9d4cd; stroke-linejoin: miter"/>
    </g>
    <g id="PathCollection_3">
     <g>
      <use xlink:href="#m3f843993a3" x="65.499531" y="39.972813" style="fill: #20ba72; stroke: #20ba72"/>
     </g>
    </g>
    <g id="text_18">
     <!-- полные месяцы -->
     <g transform="translate(82.599531 42.466563) scale(0.095 -0.095)">
      <defs>
       <path id="DejaVuSans-43f" d="M 3603 3500 
L 3603 0 
L 3025 0 
L 3025 3041 
L 1159 3041 
L 1159 0 
L 581 0 
L 581 3500 
L 3603 3500 
z
" transform="scale(0.015625)"/>
       <path id="DejaVuSans-43b" d="M 238 0 
L 238 478 
Q 806 566 981 959 
Q 1194 1513 1194 2928 
L 1194 3500 
L 3559 3500 
L 3559 0 
L 2984 0 
L 2984 3041 
L 1769 3041 
L 1769 2694 
Q 1769 1344 1494 738 
Q 1200 91 238 0 
z
" transform="scale(0.015625)"/>
       <path id="DejaVuSans-43d" d="M 581 3500 
L 1159 3500 
L 1159 2072 
L 3025 2072 
L 3025 3500 
L 3603 3500 
L 3603 0 
L 3025 0 
L 3025 1613 
L 1159 1613 
L 1159 0 
L 581 0 
L 581 3500 
z
" transform="scale(0.015625)"/>
      </defs>
      <use xlink:href="#DejaVuSans-43f"/>
      <use xlink:href="#DejaVuSans-43e" transform="translate(65.380859 0)"/>
      <use xlink:href="#DejaVuSans-43b" transform="translate(126.5625 0)"/>
      <use xlink:href="#DejaVuSans-43d" transform="translate(190.478516 0)"/>
      <use xlink:href="#DejaVuSans-44b" transform="translate(255.859375 0)"/>
      <use xlink:href="#DejaVuSans-435" transform="translate(334.814453 0)"/>
      <use xlink:href="#DejaVuSans-20" transform="translate(396.337891 0)"/>
      <use xlink:href="#DejaVuSans-43c" transform="translate(428.125 0)"/>
      <use xlink:href="#DejaVuSans-435" transform="translate(503.564453 0)"/>
      <use xlink:href="#DejaVuSans-441" transform="translate(565.087891 0)"/>
      <use xlink:href="#DejaVuSans-44f" transform="translate(620.068359 0)"/>
      <use xlink:href="#DejaVuSans-446" transform="translate(680.224609 0)"/>
      <use xlink:href="#DejaVuSans-44b" transform="translate(748.291016 0)"/>
     </g>
    </g>
    <g id="PathCollection_4">
     <g>
      <use xlink:href="#mc12f42a786" x="65.499531" y="53.917031" style="fill: #e4572e; stroke: #e4572e"/>
     </g>
    </g>
    <g id="text_19">
     <!-- неполный месяц (2025-08) -->
     <g transform="translate(82.599531 56.410781) scale(0.095 -0.095)">
      <defs>
       <path id="DejaVuSans-439" d="M 3578 3500 
L 3578 0 
L 3006 0 
L 3006 2809 
L 1319 0 
L 581 0 
L 581 3500 
L 1153 3500 
L 1153 697 
L 2838 3500 
L 3578 3500 
z
M 1103 4862 
L 1472 4862 
Q 1506 4628 1657 4510 
Q 1809 4393 2081 4393 
Q 2350 4393 2500 4509 
Q 2650 4625 2691 4862 
L 3059 4862 
Q 3028 4415 2781 4190 
Q 2534 3965 2081 3965 
Q 1628 3965 1381 4190 
Q 1134 4415 1103 4862 
z
" transform="scale(0.015625)"/>
       <path id="DejaVuSans-28" d="M 1984 4856 
Q 1566 4138 1362 3434 
Q 1159 2731 1159 2009 
Q 1159 1288 1364 580 
Q 1569 -128 1984 -844 
L 1484 -844 
Q 1016 -109 783 600 
Q 550 1309 550 2009 
Q 550 2706 781 3412 
Q 1013 4119 1484 4856 
L 1984 4856 
z
" transform="scale(0.015625)"/>
       <path id="DejaVuSans-2d" d="M 313 2009 
L 1997 2009 
L 1997 1497 
L 313 1497 
L 313 2009 
z
" transform="scale(0.015625)"/>
       <path id="DejaVuSans-38" d="M 2034 2216 
Q 1584 2216 1326 1975 
Q 1069 1734 1069 1313 
Q 1069 891 1326 650 
Q 1584 409 2034 409 
Q 2484 409 2743 651 
Q 3003 894 3003 1313 
Q 3003 1734 2745 1975 
Q 2488 2216 2034 2216 
z
M 1403 2484 
Q 997 2584 770 2862 
Q 544 3141 544 3541 
Q 544 4100 942 4425 
Q 1341 4750 2034 4750 
Q 2731 4750 3128 4425 
Q 3525 4100 3525 3541 
Q 3525 3141 3298 2862 
Q 3072 2584 2669 2484 
Q 3125 2378 3379 2068 
Q 3634 1759 3634 1313 
Q 3634 634 3220 271 
Q 2806 -91 2034 -91 
Q 1263 -91 848 271 
Q 434 634 434 1313 
Q 434 1759 690 2068 
Q 947 2378 1403 2484 
z
M 1172 3481 
Q 1172 3119 1398 2916 
Q 1625 2713 2034 2713 
Q 2441 2713 2670 2916 
Q 2900 3119 2900 3481 
Q 2900 3844 2670 4047 
Q 2441 4250 2034 4250 
Q 1625 4250 1398 4047 
Q 1172 3844 1172 3481 
z
" transform="scale(0.015625)"/>
       <path id="DejaVuSans-29" d="M 513 4856 
L 1013 4856 
Q 1481 4119 1714 3412 
Q 1947 2706 1947 2009 
Q 1947 1309 1714 600 
Q 1481 -109 1013 -844 
L 513 -844 
Q 928 -128 1133 580 
Q 1338 1288 1338 2009 
Q 1338 2731 1133 3434 
Q 928 4138 513 4856 
z
" transform="scale(0.015625)"/>
      </defs>
      <use xlink:href="#DejaVuSans-43d"/>
      <use xlink:href="#DejaVuSans-435" transform="translate(65.380859 0)"/>
      <use xlink:href="#DejaVuSans-43f" transform="translate(126.904297 0)"/>
      <use xlink:href="#DejaVuSans-43e" transform="translate(192.285156 0)"/>
      <use xlink:href="#DejaVuSans-43b" transform="translate(253.466797 0)"/>
      <use xlink:href="#DejaVuSans-43d" transform="translate(317.382812 0)"/>
      <use xlink:href="#DejaVuSans-44b" transform="translate(382.763672 0)"/>
      <use xlink:href="#DejaVuSans-439" transform="translate(461.71875 0)"/>
      <use xlink:href="#DejaVuSans-20" transform="translate(526.708984 0)"/>
      <use xlink:href="#DejaVuSans-43c" transform="translate(558.496094 0)"/>
      <use xlink:href="#DejaVuSans-435" transform="translate(633.935547 0)"/>
      <use xlink:href="#DejaVuSans-441" transform="translate(695.458984 0)"/>
      <use xlink:href="#DejaVuSans-44f" transform="translate(750.439453 0)"/>
      <use xlink:href="#DejaVuSans-446" transform="translate(810.595703 0)"/>
      <use xlink:href="#DejaVuSans-20" transform="translate(878.662109 0)"/>
      <use xlink:href="#DejaVuSans-28" transform="translate(910.449219 0)"/>
      <use xlink:href="#DejaVuSans-32" transform="translate(949.462891 0)"/>
      <use xlink:href="#DejaVuSans-30" transform="translate(1013.085938 0)"/>
      <use xlink:href="#DejaVuSans-32" transform="translate(1076.708984 0)"/>
      <use xlink:href="#DejaVuSans-35" transform="translate(1140.332031 0)"/>
      <use xlink:href="#DejaVuSans-2d" transform="translate(1203.955078 0)"/>
      <use xlink:href="#DejaVuSans-30" transform="translate(1240.039062 0)"/>
      <use xlink:href="#DejaVuSans-38" transform="translate(1303.662109 0)"/>
      <use xlink:href="#DejaVuSans-29" transform="translate(1367.285156 0)"/>
     </g>
    </g>
   </g>
  </g>
  <g id="axes_2">
   <g id="patch_6">
    <path d="M 381.596524 240.483501 
L 674.925895 240.483501 
L 674.925895 26.698047 
L 381.596524 26.698047 
L 381.596524 240.483501 
z
" style="fill: none"/>
   </g>
   <g id="matplotlib.axis_3">
    <g id="xtick_8">
     <g id="line2d_31">
      <path d="M 385.734399 240.483501 
L 385.734399 26.698047 
" clip-path="url(#p146718772f)" style="fill: none; stroke: #b0b0b0; stroke-opacity: 0.18; stroke-width: 0.8; stroke-linecap: square"/>
     </g>
     <g id="line2d_32">
      <g>
       <use xlink:href="#md159951fa8" x="385.734399" y="240.483501" style="fill: #2e3641; stroke: #2e3641; stroke-width: 0.8"/>
      </g>
     </g>
     <g id="text_20">
      <!-- 440 -->
      <g style="fill: #2e3641" transform="translate(376.190649 255.081939) scale(0.1 -0.1)">
       <use xlink:href="#DejaVuSans-34"/>
       <use xlink:href="#DejaVuSans-34" transform="translate(63.623047 0)"/>
       <use xlink:href="#DejaVuSans-30" transform="translate(127.246094 0)"/>
      </g>
     </g>
    </g>
    <g id="xtick_9">
     <g id="line2d_33">
      <path d="M 431.71079 240.483501 
L 431.71079 26.698047 
" clip-path="url(#p146718772f)" style="fill: none; stroke: #b0b0b0; stroke-opacity: 0.18; stroke-width: 0.8; stroke-linecap: square"/>
     </g>
     <g id="line2d_34">
      <g>
       <use xlink:href="#md159951fa8" x="431.71079" y="240.483501" style="fill: #2e3641; stroke: #2e3641; stroke-width: 0.8"/>
      </g>
     </g>
     <g id="text_21">
      <!-- 460 -->
      <g style="fill: #2e3641" transform="translate(422.16704 255.081939) scale(0.1 -0.1)">
       <use xlink:href="#DejaVuSans-34"/>
       <use xlink:href="#DejaVuSans-36" transform="translate(63.623047 0)"/>
       <use xlink:href="#DejaVuSans-30" transform="translate(127.246094 0)"/>
      </g>
     </g>
    </g>
    <g id="xtick_10">
     <g id="line2d_35">
      <path d="M 477.68718 240.483501 
L 477.68718 26.698047 
" clip-path="url(#p146718772f)" style="fill: none; stroke: #b0b0b0; stroke-opacity: 0.18; stroke-width: 0.8; stroke-linecap: square"/>
     </g>
     <g id="line2d_36">
      <g>
       <use xlink:href="#md159951fa8" x="477.68718" y="240.483501" style="fill: #2e3641; stroke: #2e3641; stroke-width: 0.8"/>
      </g>
     </g>
     <g id="text_22">
      <!-- 480 -->
      <g style="fill: #2e3641" transform="translate(468.14343 255.081939) scale(0.1 -0.1)">
       <use xlink:href="#DejaVuSans-34"/>
       <use xlink:href="#DejaVuSans-38" transform="translate(63.623047 0)"/>
       <use xlink:href="#DejaVuSans-30" transform="translate(127.246094 0)"/>
      </g>
     </g>
    </g>
    <g id="xtick_11">
     <g id="line2d_37">
      <path d="M 523.663571 240.483501 
L 523.663571 26.698047 
" clip-path="url(#p146718772f)" style="fill: none; stroke: #b0b0b0; stroke-opacity: 0.18; stroke-width: 0.8; stroke-linecap: square"/>
     </g>
     <g id="line2d_38">
      <g>
       <use xlink:href="#md159951fa8" x="523.663571" y="240.483501" style="fill: #2e3641; stroke: #2e3641; stroke-width: 0.8"/>
      </g>
     </g>
     <g id="text_23">
      <!-- 500 -->
      <g style="fill: #2e3641" transform="translate(514.119821 255.081939) scale(0.1 -0.1)">
       <use xlink:href="#DejaVuSans-35"/>
       <use xlink:href="#DejaVuSans-30" transform="translate(63.623047 0)"/>
       <use xlink:href="#DejaVuSans-30" transform="translate(127.246094 0)"/>
      </g>
     </g>
    </g>
    <g id="xtick_12">
     <g id="line2d_39">
      <path d="M 569.639961 240.483501 
L 569.639961 26.698047 
" clip-path="url(#p146718772f)" style="fill: none; stroke: #b0b0b0; stroke-opacity: 0.18; stroke-width: 0.8; stroke-linecap: square"/>
     </g>
     <g id="line2d_40">
      <g>
       <use xlink:href="#md159951fa8" x="569.639961" y="240.483501" style="fill: #2e3641; stroke: #2e3641; stroke-width: 0.8"/>
      </g>
     </g>
     <g id="text_24">
      <!-- 520 -->
      <g style="fill: #2e3641" transform="translate(560.096211 255.081939) scale(0.1 -0.1)">
       <use xlink:href="#DejaVuSans-35"/>
       <use xlink:href="#DejaVuSans-32" transform="translate(63.623047 0)"/>
       <use xlink:href="#DejaVuSans-30" transform="translate(127.246094 0)"/>
      </g>
     </g>
    </g>
    <g id="xtick_13">
     <g id="line2d_41">
      <path d="M 615.616351 240.483501 
L 615.616351 26.698047 
" clip-path="url(#p146718772f)" style="fill: none; stroke: #b0b0b0; stroke-opacity: 0.18; stroke-width: 0.8; stroke-linecap: square"/>
     </g>
     <g id="line2d_42">
      <g>
       <use xlink:href="#md159951fa8" x="615.616351" y="240.483501" style="fill: #2e3641; stroke: #2e3641; stroke-width: 0.8"/>
      </g>
     </g>
     <g id="text_25">
      <!-- 540 -->
      <g style="fill: #2e3641" transform="translate(606.072601 255.081939) scale(0.1 -0.1)">
       <use xlink:href="#DejaVuSans-35"/>
       <use xlink:href="#DejaVuSans-34" transform="translate(63.623047 0)"/>
       <use xlink:href="#DejaVuSans-30" transform="translate(127.246094 0)"/>
      </g>
     </g>
    </g>
    <g id="xtick_14">
     <g id="line2d_43">
      <path d="M 661.592742 240.483501 
L 661.592742 26.698047 
" clip-path="url(#p146718772f)" style="fill: none; stroke: #b0b0b0; stroke-opacity: 0.18; stroke-width: 0.8; stroke-linecap: square"/>
     </g>
     <g id="line2d_44">
      <g>
       <use xlink:href="#md159951fa8" x="661.592742" y="240.483501" style="fill: #2e3641; stroke: #2e3641; stroke-width: 0.8"/>
      </g>
     </g>
     <g id="text_26">
      <!-- 560 -->
      <g style="fill: #2e3641" transform="translate(652.048992 255.081939) scale(0.1 -0.1)">
       <use xlink:href="#DejaVuSans-35"/>
       <use xlink:href="#DejaVuSans-36" transform="translate(63.623047 0)"/>
       <use xlink:href="#DejaVuSans-30" transform="translate(127.246094 0)"/>
      </g>
     </g>
    </g>
    <g id="text_27">
     <!-- заявок за месяц -->
     <g style="fill: #2e3641" transform="translate(483.461483 269.139986) scale(0.105 -0.105)">
      <use xlink:href="#DejaVuSans-437"/>
      <use xlink:href="#DejaVuSans-430" transform="translate(53.173828 0)"/>
      <use xlink:href="#DejaVuSans-44f" transform="translate(114.453125 0)"/>
      <use xlink:href="#DejaVuSans-432" transform="translate(174.609375 0)"/>
      <use xlink:href="#DejaVuSans-43e" transform="translate(233.544922 0)"/>
      <use xlink:href="#DejaVuSans-43a" transform="translate(294.726562 0)"/>
      <use xlink:href="#DejaVuSans-20" transform="translate(355.126953 0)"/>
      <use xlink:href="#DejaVuSans-437" transform="translate(386.914062 0)"/>
      <use xlink:href="#DejaVuSans-430" transform="translate(440.087891 0)"/>
      <use xlink:href="#DejaVuSans-20" transform="translate(501.367188 0)"/>
      <use xlink:href="#DejaVuSans-43c" transform="translate(533.154297 0)"/>
      <use xlink:href="#DejaVuSans-435" transform="translate(608.59375 0)"/>
      <use xlink:href="#DejaVuSans-441" transform="translate(670.117188 0)"/>
      <use xlink:href="#DejaVuSans-44f" transform="translate(725.097656 0)"/>
      <use xlink:href="#DejaVuSans-446" transform="translate(785.253906 0)"/>
     </g>
    </g>
   </g>
   <g id="matplotlib.axis_4">
    <g id="ytick_8">
     <g id="line2d_45">
      <path d="M 381.596524 235.010264 
L 674.925895 235.010264 
" clip-path="url(#p146718772f)" style="fill: none; stroke: #b0b0b0; stroke-opacity: 0.18; stroke-width: 0.8; stroke-linecap: square"/>
     </g>
     <g id="line2d_46">
      <g>
       <use xlink:href="#mccf4fa2e28" x="381.596524" y="235.010264" style="fill: #2e3641; stroke: #2e3641; stroke-width: 0.8"/>
      </g>
     </g>
     <g id="text_28">
      <!-- 220 -->
      <g style="fill: #2e3641" transform="translate(355.509024 238.809482) scale(0.1 -0.1)">
       <use xlink:href="#DejaVuSans-32"/>
       <use xlink:href="#DejaVuSans-32" transform="translate(63.623047 0)"/>
       <use xlink:href="#DejaVuSans-30" transform="translate(127.246094 0)"/>
      </g>
     </g>
    </g>
    <g id="ytick_9">
     <g id="line2d_47">
      <path d="M 381.596524 204.343218 
L 674.925895 204.343218 
" clip-path="url(#p146718772f)" style="fill: none; stroke: #b0b0b0; stroke-opacity: 0.18; stroke-width: 0.8; stroke-linecap: square"/>
     </g>
     <g id="line2d_48">
      <g>
       <use xlink:href="#mccf4fa2e28" x="381.596524" y="204.343218" style="fill: #2e3641; stroke: #2e3641; stroke-width: 0.8"/>
      </g>
     </g>
     <g id="text_29">
      <!-- 230 -->
      <g style="fill: #2e3641" transform="translate(355.509024 208.142437) scale(0.1 -0.1)">
       <use xlink:href="#DejaVuSans-32"/>
       <use xlink:href="#DejaVuSans-33" transform="translate(63.623047 0)"/>
       <use xlink:href="#DejaVuSans-30" transform="translate(127.246094 0)"/>
      </g>
     </g>
    </g>
    <g id="ytick_10">
     <g id="line2d_49">
      <path d="M 381.596524 173.676172 
L 674.925895 173.676172 
" clip-path="url(#p146718772f)" style="fill: none; stroke: #b0b0b0; stroke-opacity: 0.18; stroke-width: 0.8; stroke-linecap: square"/>
     </g>
     <g id="line2d_50">
      <g>
       <use xlink:href="#mccf4fa2e28" x="381.596524" y="173.676172" style="fill: #2e3641; stroke: #2e3641; stroke-width: 0.8"/>
      </g>
     </g>
     <g id="text_30">
      <!-- 240 -->
      <g style="fill: #2e3641" transform="translate(355.509024 177.475391) scale(0.1 -0.1)">
       <use xlink:href="#DejaVuSans-32"/>
       <use xlink:href="#DejaVuSans-34" transform="translate(63.623047 0)"/>
       <use xlink:href="#DejaVuSans-30" transform="translate(127.246094 0)"/>
      </g>
     </g>
    </g>
    <g id="ytick_11">
     <g id="line2d_51">
      <path d="M 381.596524 143.009126 
L 674.925895 143.009126 
" clip-path="url(#p146718772f)" style="fill: none; stroke: #b0b0b0; stroke-opacity: 0.18; stroke-width: 0.8; stroke-linecap: square"/>
     </g>
     <g id="line2d_52">
      <g>
       <use xlink:href="#mccf4fa2e28" x="381.596524" y="143.009126" style="fill: #2e3641; stroke: #2e3641; stroke-width: 0.8"/>
      </g>
     </g>
     <g id="text_31">
      <!-- 250 -->
      <g style="fill: #2e3641" transform="translate(355.509024 146.808345) scale(0.1 -0.1)">
       <use xlink:href="#DejaVuSans-32"/>
       <use xlink:href="#DejaVuSans-35" transform="translate(63.623047 0)"/>
       <use xlink:href="#DejaVuSans-30" transform="translate(127.246094 0)"/>
      </g>
     </g>
    </g>
    <g id="ytick_12">
     <g id="line2d_53">
      <path d="M 381.596524 112.342081 
L 674.925895 112.342081 
" clip-path="url(#p146718772f)" style="fill: none; stroke: #b0b0b0; stroke-opacity: 0.18; stroke-width: 0.8; stroke-linecap: square"/>
     </g>
     <g id="line2d_54">
      <g>
       <use xlink:href="#mccf4fa2e28" x="381.596524" y="112.342081" style="fill: #2e3641; stroke: #2e3641; stroke-width: 0.8"/>
      </g>
     </g>
     <g id="text_32">
      <!-- 260 -->
      <g style="fill: #2e3641" transform="translate(355.509024 116.141299) scale(0.1 -0.1)">
       <use xlink:href="#DejaVuSans-32"/>
       <use xlink:href="#DejaVuSans-36" transform="translate(63.623047 0)"/>
       <use xlink:href="#DejaVuSans-30" transform="translate(127.246094 0)"/>
      </g>
     </g>
    </g>
    <g id="ytick_13">
     <g id="line2d_55">
      <path d="M 381.596524 81.675035 
L 674.925895 81.675035 
" clip-path="url(#p146718772f)" style="fill: none; stroke: #b0b0b0; stroke-opacity: 0.18; stroke-width: 0.8; stroke-linecap: square"/>
     </g>
     <g id="line2d_56">
      <g>
       <use xlink:href="#mccf4fa2e28" x="381.596524" y="81.675035" style="fill: #2e3641; stroke: #2e3641; stroke-width: 0.8"/>
      </g>
     </g>
     <g id="text_33">
      <!-- 270 -->
      <g style="fill: #2e3641" transform="translate(355.509024 85.474254) scale(0.1 -0.1)">
       <defs>
        <path id="DejaVuSans-37" d="M 525 4666 
L 3525 4666 
L 3525 4397 
L 1831 0 
L 1172 0 
L 2766 4134 
L 525 4134 
L 525 4666 
z
" transform="scale(0.015625)"/>
       </defs>
       <use xlink:href="#DejaVuSans-32"/>
       <use xlink:href="#DejaVuSans-37" transform="translate(63.623047 0)"/>
       <use xlink:href="#DejaVuSans-30" transform="translate(127.246094 0)"/>
      </g>
     </g>
    </g>
    <g id="ytick_14">
     <g id="line2d_57">
      <path d="M 381.596524 51.007989 
L 674.925895 51.007989 
" clip-path="url(#p146718772f)" style="fill: none; stroke: #b0b0b0; stroke-opacity: 0.18; stroke-width: 0.8; stroke-linecap: square"/>
     </g>
     <g id="line2d_58">
      <g>
       <use xlink:href="#mccf4fa2e28" x="381.596524" y="51.007989" style="fill: #2e3641; stroke: #2e3641; stroke-width: 0.8"/>
      </g>
     </g>
     <g id="text_34">
      <!-- 280 -->
      <g style="fill: #2e3641" transform="translate(355.509024 54.807208) scale(0.1 -0.1)">
       <use xlink:href="#DejaVuSans-32"/>
       <use xlink:href="#DejaVuSans-38" transform="translate(63.623047 0)"/>
       <use xlink:href="#DejaVuSans-30" transform="translate(127.246094 0)"/>
      </g>
     </g>
    </g>
   </g>
   <g id="line2d_59">
    <path d="M 394.929677 230.765981 
L 400.371781 226.799646 
L 405.813884 222.833311 
L 411.255987 218.866976 
L 416.698091 214.900641 
L 422.140194 210.934306 
L 427.582298 206.967971 
L 433.024401 203.001636 
L 438.466504 199.035301 
L 443.908608 195.068966 
L 449.350711 191.102631 
L 454.792814 187.136296 
L 460.234918 183.169961 
L 465.677021 179.203626 
L 471.119124 175.237291 
L 476.561228 171.270956 
L 482.003331 167.304621 
L 487.445434 163.338286 
L 492.887538 159.371951 
L 498.329641 155.405616 
L 503.771744 151.439281 
L 509.213848 147.472947 
L 514.655951 143.506612 
L 520.098055 139.540277 
L 525.540158 135.573942 
L 530.982261 131.607607 
L 536.424365 127.641272 
L 541.866468 123.674937 
L 547.308571 119.708602 
L 552.750675 115.742267 
L 558.192778 111.775932 
L 563.634881 107.809597 
L 569.076985 103.843262 
L 574.519088 99.876927 
L 579.961191 95.910592 
L 585.403295 91.944257 
L 590.845398 87.977922 
L 596.287501 84.011587 
L 601.729605 80.045252 
L 607.171708 76.078917 
L 612.613812 72.112582 
L 618.055915 68.146247 
L 623.498018 64.179912 
L 628.940122 60.213577 
L 634.382225 56.247242 
L 639.824328 52.280907 
L 645.266432 48.314572 
L 650.708535 44.348237 
L 656.150638 40.381902 
L 661.592742 36.415568 
" clip-path="url(#p146718772f)" style="fill: none; stroke: #128a53; stroke-width: 2.2; stroke-linecap: square"/>
   </g>
   <g id="line2d_60">
    <path d="M 394.929677 223.59125 
L 400.371781 219.876577 
L 405.813884 216.161904 
L 411.255987 212.447232 
L 416.698091 208.732559 
L 422.140194 205.017886 
L 427.582298 201.303214 
L 433.024401 197.588541 
L 438.466504 193.873868 
L 443.908608 190.159196 
L 449.350711 186.444523 
L 454.792814 182.72985 
L 460.234918 179.015178 
L 465.677021 175.300505 
L 471.119124 171.585832 
L 476.561228 167.87116 
L 482.003331 164.156487 
L 487.445434 160.441814 
L 492.887538 156.727142 
L 498.329641 153.012469 
L 503.771744 149.297796 
L 509.213848 145.583124 
L 514.655951 141.868451 
L 520.098055 138.153778 
L 525.540158 134.439106 
L 530.982261 130.724433 
L 536.424365 127.00976 
L 541.866468 123.295088 
L 547.308571 119.580415 
L 552.750675 115.865742 
L 558.192778 112.15107 
L 563.634881 108.436397 
L 569.076985 104.721724 
L 574.519088 101.007052 
L 579.961191 97.292379 
L 585.403295 93.577706 
L 590.845398 89.863034 
L 596.287501 86.148361 
L 601.729605 82.433688 
L 607.171708 78.719016 
L 612.613812 75.004343 
L 618.055915 71.28967 
L 623.498018 67.574998 
L 628.940122 63.860325 
L 634.382225 60.145652 
L 639.824328 56.43098 
L 645.266432 52.716307 
L 650.708535 49.001635 
L 656.150638 45.286962 
L 661.592742 41.572289 
" clip-path="url(#p146718772f)" style="fill: none; stroke-dasharray: 7.4,3.2; stroke-dashoffset: 0; stroke: #e4572e; stroke-width: 2"/>
   </g>
   <g id="patch_7">
    <path d="M 381.596524 240.483501 
L 381.596524 26.698047 
" style="fill: none; stroke: #c9d4cd; stroke-width: 0.8; stroke-linejoin: miter; stroke-linecap: square"/>
   </g>
   <g id="patch_8">
    <path d="M 381.596524 240.483501 
L 674.925895 240.483501 
" style="fill: none; stroke: #c9d4cd; stroke-width: 0.8; stroke-linejoin: miter; stroke-linecap: square"/>
   </g>
   <g id="PathCollection_5">
    <g clip-path="url(#p146718772f)">
     <use xlink:href="#m3f843993a3" x="429.41197" y="225.81015" style="fill: #20ba72; stroke: #20ba72"/>
     <use xlink:href="#m3f843993a3" x="470.790722" y="164.476058" style="fill: #20ba72; stroke: #20ba72"/>
     <use xlink:href="#m3f843993a3" x="544.352946" y="103.141967" style="fill: #20ba72; stroke: #20ba72"/>
     <use xlink:href="#m3f843993a3" x="601.823434" y="97.008558" style="fill: #20ba72; stroke: #20ba72"/>
     <use xlink:href="#m3f843993a3" x="627.110449" y="75.541626" style="fill: #20ba72; stroke: #20ba72"/>
     <use xlink:href="#m3f843993a3" x="571.93878" y="87.808444" style="fill: #20ba72; stroke: #20ba72"/>
     <use xlink:href="#m3f843993a3" x="576.536419" y="90.875149" style="fill: #20ba72; stroke: #20ba72"/>
    </g>
   </g>
   <g id="text_35">
    <!-- Крупным планом: только полные месяцы -->
    <g style="fill: #2e3641" transform="translate(377.436991 16.698047) scale(0.125 -0.125)">
     <defs>
      <path id="DejaVuSans-Bold-41a" d="M 588 4666 
L 1791 4666 
L 1791 2741 
L 3672 4666 
L 5034 4666 
L 3181 2775 
L 5138 0 
L 3813 0 
L 2409 1988 
L 1791 1356 
L 1791 0 
L 588 0 
L 588 4666 
z
" transform="scale(0.015625)"/>
      <path id="DejaVuSans-Bold-443" d="M 78 3500 
L 1197 3500 
L 2138 1125 
L 2938 3500 
L 4056 3500 
L 2584 -331 
Q 2363 -916 2067 -1148 
Q 1772 -1381 1288 -1381 
L 641 -1381 
L 641 -647 
L 991 -647 
Q 1275 -647 1404 -556 
Q 1534 -466 1606 -231 
L 1638 -134 
L 78 3500 
z
" transform="scale(0.015625)"/>
      <path id="DejaVuSans-Bold-43f" d="M 3884 3500 
L 3884 0 
L 2766 0 
L 2766 2700 
L 1656 2700 
L 1656 0 
L 538 0 
L 538 3500 
L 3884 3500 
z
" transform="scale(0.015625)"/>
      <path id="DejaVuSans-Bold-43d" d="M 538 3500 
L 1656 3500 
L 1656 2169 
L 2766 2169 
L 2766 3500 
L 3884 3500 
L 3884 0 
L 2766 0 
L 2766 1478 
L 1656 1478 
L 1656 0 
L 538 0 
L 538 3500 
z
" transform="scale(0.015625)"/>
      <path id="DejaVuSans-Bold-44b" d="M 4150 3500 
L 5269 3500 
L 5269 0 
L 4150 0 
L 4150 3500 
z
M 2719 1094 
Q 2719 1291 2594 1388 
Q 2472 1481 2222 1481 
L 1656 1481 
L 1656 700 
L 2222 700 
Q 2469 700 2594 800 
Q 2719 897 2719 1094 
z
M 538 3500 
L 1656 3500 
L 1656 2172 
L 2291 2172 
Q 3000 2172 3381 1913 
Q 3766 1650 3766 1081 
Q 3766 513 3381 256 
Q 3000 0 2291 0 
L 538 0 
L 538 3500 
z
" transform="scale(0.015625)"/>
      <path id="DejaVuSans-Bold-43c" d="M 538 3500 
L 1825 3500 
L 2613 1750 
L 3400 3500 
L 4691 3500 
L 4691 0 
L 3575 0 
L 3575 1984 
L 2984 672 
L 2250 672 
L 1656 1984 
L 1656 0 
L 538 0 
L 538 3500 
z
" transform="scale(0.015625)"/>
      <path id="DejaVuSans-Bold-43b" d="M 353 0 
L 353 800 
Q 906 913 1031 1278 
Q 1125 1556 1125 2928 
L 1125 3500 
L 4150 3500 
L 4150 0 
L 3031 0 
L 3031 2700 
L 2244 2700 
L 2244 2584 
Q 2244 1213 2028 813 
Q 1591 0 353 0 
z
" transform="scale(0.015625)"/>
      <path id="DejaVuSans-Bold-430" d="M 2106 1575 
Q 1756 1575 1579 1456 
Q 1403 1338 1403 1106 
Q 1403 894 1545 773 
Q 1688 653 1941 653 
Q 2256 653 2472 879 
Q 2688 1106 2688 1447 
L 2688 1575 
L 2106 1575 
z
M 3816 1997 
L 3816 0 
L 2688 0 
L 2688 519 
Q 2463 200 2181 54 
Q 1900 -91 1497 -91 
Q 953 -91 614 226 
Q 275 544 275 1050 
Q 275 1666 698 1953 
Q 1122 2241 2028 2241 
L 2688 2241 
L 2688 2328 
Q 2688 2594 2478 2717 
Q 2269 2841 1825 2841 
Q 1466 2841 1156 2769 
Q 847 2697 581 2553 
L 581 3406 
Q 941 3494 1303 3539 
Q 1666 3584 2028 3584 
Q 2975 3584 3395 3211 
Q 3816 2838 3816 1997 
z
" transform="scale(0.015625)"/>
      <path id="DejaVuSans-Bold-43e" d="M 2203 2784 
Q 1831 2784 1636 2517 
Q 1441 2250 1441 1747 
Q 1441 1244 1636 976 
Q 1831 709 2203 709 
Q 2569 709 2762 976 
Q 2956 1244 2956 1747 
Q 2956 2250 2762 2517 
Q 2569 2784 2203 2784 
z
M 2203 3584 
Q 3106 3584 3614 3096 
Q 4122 2609 4122 1747 
Q 4122 884 3614 396 
Q 3106 -91 2203 -91 
Q 1297 -91 786 396 
Q 275 884 275 1747 
Q 275 2609 786 3096 
Q 1297 3584 2203 3584 
z
" transform="scale(0.015625)"/>
      <path id="DejaVuSans-Bold-3a" d="M 716 3500 
L 1844 3500 
L 1844 2291 
L 716 2291 
L 716 3500 
z
M 716 1209 
L 1844 1209 
L 1844 0 
L 716 0 
L 716 1209 
z
" transform="scale(0.015625)"/>
      <path id="DejaVuSans-Bold-442" d="M 25 3500 
L 3681 3500 
L 3681 2809 
L 2413 2809 
L 2413 0 
L 1297 0 
L 1297 2809 
L 25 2809 
L 25 3500 
z
" transform="scale(0.015625)"/>
      <path id="DejaVuSans-Bold-43a" d="M 538 3500 
L 1656 3500 
L 1656 2316 
L 2903 3500 
L 4128 3500 
L 2634 2078 
L 4250 0 
L 3094 0 
L 1972 1447 
L 1656 1147 
L 1656 0 
L 538 0 
L 538 3500 
z
" transform="scale(0.015625)"/>
      <path id="DejaVuSans-Bold-446" d="M 3666 -884 
L 3666 0 
L 538 0 
L 538 3500 
L 1656 3500 
L 1656 800 
L 2766 800 
L 2766 3500 
L 3884 3500 
L 3884 800 
L 4466 800 
L 4466 -884 
L 3666 -884 
z
" transform="scale(0.015625)"/>
     </defs>
     <use xlink:href="#DejaVuSans-Bold-41a"/>
     <use xlink:href="#DejaVuSans-Bold-440" transform="translate(81.738281 0)"/>
     <use xlink:href="#DejaVuSans-Bold-443" transform="translate(153.320312 0)"/>
     <use xlink:href="#DejaVuSans-Bold-43f" transform="translate(218.505859 0)"/>
     <use xlink:href="#DejaVuSans-Bold-43d" transform="translate(287.597656 0)"/>
     <use xlink:href="#DejaVuSans-Bold-44b" transform="translate(356.689453 0)"/>
     <use xlink:href="#DejaVuSans-Bold-43c" transform="translate(447.119141 0)"/>
     <use xlink:href="#DejaVuSans-Bold-20" transform="translate(528.857422 0)"/>
     <use xlink:href="#DejaVuSans-Bold-43f" transform="translate(563.671875 0)"/>
     <use xlink:href="#DejaVuSans-Bold-43b" transform="translate(632.763672 0)"/>
     <use xlink:href="#DejaVuSans-Bold-430" transform="translate(706.005859 0)"/>
     <use xlink:href="#DejaVuSans-Bold-43d" transform="translate(773.486328 0)"/>
     <use xlink:href="#DejaVuSans-Bold-43e" transform="translate(842.578125 0)"/>
     <use xlink:href="#DejaVuSans-Bold-43c" transform="translate(911.279297 0)"/>
     <use xlink:href="#DejaVuSans-Bold-3a" transform="translate(993.017578 0)"/>
     <use xlink:href="#DejaVuSans-Bold-20" transform="translate(1033.007812 0)"/>
     <use xlink:href="#DejaVuSans-Bold-442" transform="translate(1067.822266 0)"/>
     <use xlink:href="#DejaVuSans-Bold-43e" transform="translate(1125.78125 0)"/>
     <use xlink:href="#DejaVuSans-Bold-43b" transform="translate(1194.482422 0)"/>
     <use xlink:href="#DejaVuSans-Bold-44c" transform="translate(1267.724609 0)"/>
     <use xlink:href="#DejaVuSans-Bold-43a" transform="translate(1330.957031 0)"/>
     <use xlink:href="#DejaVuSans-Bold-43e" transform="translate(1398.828125 0)"/>
     <use xlink:href="#DejaVuSans-Bold-20" transform="translate(1467.529297 0)"/>
     <use xlink:href="#DejaVuSans-Bold-43f" transform="translate(1502.34375 0)"/>
     <use xlink:href="#DejaVuSans-Bold-43e" transform="translate(1571.435547 0)"/>
     <use xlink:href="#DejaVuSans-Bold-43b" transform="translate(1640.136719 0)"/>
     <use xlink:href="#DejaVuSans-Bold-43d" transform="translate(1713.378906 0)"/>
     <use xlink:href="#DejaVuSans-Bold-44b" transform="translate(1782.470703 0)"/>
     <use xlink:href="#DejaVuSans-Bold-435" transform="translate(1872.900391 0)"/>
     <use xlink:href="#DejaVuSans-Bold-20" transform="translate(1940.722656 0)"/>
     <use xlink:href="#DejaVuSans-Bold-43c" transform="translate(1975.537109 0)"/>
     <use xlink:href="#DejaVuSans-Bold-435" transform="translate(2057.275391 0)"/>
     <use xlink:href="#DejaVuSans-Bold-441" transform="translate(2125.097656 0)"/>
     <use xlink:href="#DejaVuSans-Bold-44f" transform="translate(2184.375 0)"/>
     <use xlink:href="#DejaVuSans-Bold-446" transform="translate(2248.583984 0)"/>
     <use xlink:href="#DejaVuSans-Bold-44b" transform="translate(2322.705078 0)"/>
    </g>
   </g>
   <g id="legend_2">
    <g id="patch_9">
     <path d="M 388.246524 62.186484 
L 576.912071 62.186484 
Q 578.812071 62.186484 578.812071 60.286484 
L 578.812071 33.348047 
Q 578.812071 31.448047 576.912071 31.448047 
L 388.246524 31.448047 
Q 386.346524 31.448047 386.346524 33.348047 
L 386.346524 60.286484 
Q 386.346524 62.186484 388.246524 62.186484 
z
" style="fill: #ffffff; opacity: 0.8; stroke: #c9d4cd; stroke-linejoin: miter"/>
    </g>
    <g id="line2d_61">
     <path d="M 390.146524 39.141563 
L 399.646524 39.141563 
L 409.146524 39.141563 
" style="fill: none; stroke: #128a53; stroke-width: 2.2; stroke-linecap: square"/>
    </g>
    <g id="text_36">
     <!-- по полным месяцам: R² = 0,909 -->
     <g transform="translate(416.746524 42.466563) scale(0.095 -0.095)">
      <defs>
       <path id="DejaVuSans-3a" d="M 750 794 
L 1409 794 
L 1409 0 
L 750 0 
L 750 794 
z
M 750 3309 
L 1409 3309 
L 1409 2516 
L 750 2516 
L 750 3309 
z
" transform="scale(0.015625)"/>
       <path id="DejaVuSans-52" d="M 2841 2188 
Q 3044 2119 3236 1894 
Q 3428 1669 3622 1275 
L 4263 0 
L 3584 0 
L 2988 1197 
Q 2756 1666 2539 1819 
Q 2322 1972 1947 1972 
L 1259 1972 
L 1259 0 
L 628 0 
L 628 4666 
L 2053 4666 
Q 2853 4666 3247 4331 
Q 3641 3997 3641 3322 
Q 3641 2881 3436 2590 
Q 3231 2300 2841 2188 
z
M 1259 4147 
L 1259 2491 
L 2053 2491 
Q 2509 2491 2742 2702 
Q 2975 2913 2975 3322 
Q 2975 3731 2742 3939 
Q 2509 4147 2053 4147 
L 1259 4147 
z
" transform="scale(0.015625)"/>
       <path id="DejaVuSans-b2" d="M 838 2444 
L 2163 2444 
L 2163 2088 
L 294 2088 
L 294 2431 
Q 400 2528 597 2703 
Q 1672 3656 1672 3950 
Q 1672 4156 1509 4282 
Q 1347 4409 1081 4409 
Q 919 4409 728 4354 
Q 538 4300 313 4191 
L 313 4575 
Q 553 4663 761 4706 
Q 969 4750 1147 4750 
Q 1600 4750 1872 4544 
Q 2144 4338 2144 4000 
Q 2144 3566 1109 2678 
Q 934 2528 838 2444 
z
" transform="scale(0.015625)"/>
       <path id="DejaVuSans-3d" d="M 678 2906 
L 4684 2906 
L 4684 2381 
L 678 2381 
L 678 2906 
z
M 678 1631 
L 4684 1631 
L 4684 1100 
L 678 1100 
L 678 1631 
z
" transform="scale(0.015625)"/>
       <path id="DejaVuSans-2c" d="M 750 794 
L 1409 794 
L 1409 256 
L 897 -744 
L 494 -744 
L 750 256 
L 750 794 
z
" transform="scale(0.015625)"/>
       <path id="DejaVuSans-39" d="M 703 97 
L 703 672 
Q 941 559 1184 500 
Q 1428 441 1663 441 
Q 2288 441 2617 861 
Q 2947 1281 2994 2138 
Q 2813 1869 2534 1725 
Q 2256 1581 1919 1581 
Q 1219 1581 811 2004 
Q 403 2428 403 3163 
Q 403 3881 828 4315 
Q 1253 4750 1959 4750 
Q 2769 4750 3195 4129 
Q 3622 3509 3622 2328 
Q 3622 1225 3098 567 
Q 2575 -91 1691 -91 
Q 1453 -91 1209 -44 
Q 966 3 703 97 
z
M 1959 2075 
Q 2384 2075 2632 2365 
Q 2881 2656 2881 3163 
Q 2881 3666 2632 3958 
Q 2384 4250 1959 4250 
Q 1534 4250 1286 3958 
Q 1038 3666 1038 3163 
Q 1038 2656 1286 2365 
Q 1534 2075 1959 2075 
z
" transform="scale(0.015625)"/>
      </defs>
      <use xlink:href="#DejaVuSans-43f"/>
      <use xlink:href="#DejaVuSans-43e" transform="translate(65.380859 0)"/>
      <use xlink:href="#DejaVuSans-20" transform="translate(126.5625 0)"/>
      <use xlink:href="#DejaVuSans-43f" transform="translate(158.349609 0)"/>
      <use xlink:href="#DejaVuSans-43e" transform="translate(223.730469 0)"/>
      <use xlink:href="#DejaVuSans-43b" transform="translate(284.912109 0)"/>
      <use xlink:href="#DejaVuSans-43d" transform="translate(348.828125 0)"/>
      <use xlink:href="#DejaVuSans-44b" transform="translate(414.208984 0)"/>
      <use xlink:href="#DejaVuSans-43c" transform="translate(493.164062 0)"/>
      <use xlink:href="#DejaVuSans-20" transform="translate(568.603516 0)"/>
      <use xlink:href="#DejaVuSans-43c" transform="translate(600.390625 0)"/>
      <use xlink:href="#DejaVuSans-435" transform="translate(675.830078 0)"/>
      <use xlink:href="#DejaVuSans-441" transform="translate(737.353516 0)"/>
      <use xlink:href="#DejaVuSans-44f" transform="translate(792.333984 0)"/>
      <use xlink:href="#DejaVuSans-446" transform="translate(852.490234 0)"/>
      <use xlink:href="#DejaVuSans-430" transform="translate(920.556641 0)"/>
      <use xlink:href="#DejaVuSans-43c" transform="translate(981.835938 0)"/>
      <use xlink:href="#DejaVuSans-3a" transform="translate(1057.275391 0)"/>
      <use xlink:href="#DejaVuSans-20" transform="translate(1090.966797 0)"/>
      <use xlink:href="#DejaVuSans-52" transform="translate(1122.753906 0)"/>
      <use xlink:href="#DejaVuSans-b2" transform="translate(1192.236328 0)"/>
      <use xlink:href="#DejaVuSans-20" transform="translate(1232.324219 0)"/>
      <use xlink:href="#DejaVuSans-3d" transform="translate(1264.111328 0)"/>
      <use xlink:href="#DejaVuSans-20" transform="translate(1347.900391 0)"/>
      <use xlink:href="#DejaVuSans-30" transform="translate(1379.6875 0)"/>
      <use xlink:href="#DejaVuSans-2c" transform="translate(1443.310547 0)"/>
      <use xlink:href="#DejaVuSans-39" transform="translate(1475.097656 0)"/>
      <use xlink:href="#DejaVuSans-30" transform="translate(1538.720703 0)"/>
      <use xlink:href="#DejaVuSans-39" transform="translate(1602.34375 0)"/>
     </g>
    </g>
    <g id="line2d_62">
     <path d="M 390.146524 53.085781 
L 399.646524 53.085781 
L 409.146524 53.085781 
" style="fill: none; stroke-dasharray: 7.4,3.2; stroke-dashoffset: 0; stroke: #e4572e; stroke-width: 2"/>
    </g>
    <g id="text_37">
     <!-- со всеми точками: R² = 0,997 -->
     <g transform="translate(416.746524 56.410781) scale(0.095 -0.095)">
      <defs>
       <path id="DejaVuSans-438" d="M 3578 3500 
L 3578 0 
L 3006 0 
L 3006 2809 
L 1319 0 
L 581 0 
L 581 3500 
L 1153 3500 
L 1153 697 
L 2838 3500 
L 3578 3500 
z
" transform="scale(0.015625)"/>
       <path id="DejaVuSans-442" d="M 188 3500 
L 3541 3500 
L 3541 3041 
L 2147 3041 
L 2147 0 
L 1581 0 
L 1581 3041 
L 188 3041 
L 188 3500 
z
" transform="scale(0.015625)"/>
      </defs>
      <use xlink:href="#DejaVuSans-441"/>
      <use xlink:href="#DejaVuSans-43e" transform="translate(54.980469 0)"/>
      <use xlink:href="#DejaVuSans-20" transform="translate(116.162109 0)"/>
      <use xlink:href="#DejaVuSans-432" transform="translate(147.949219 0)"/>
      <use xlink:href="#DejaVuSans-441" transform="translate(206.884766 0)"/>
      <use xlink:href="#DejaVuSans-435" transform="translate(261.865234 0)"/>
      <use xlink:href="#DejaVuSans-43c" transform="translate(323.388672 0)"/>
      <use xlink:href="#DejaVuSans-438" transform="translate(398.828125 0)"/>
      <use xlink:href="#DejaVuSans-20" transform="translate(463.818359 0)"/>
      <use xlink:href="#DejaVuSans-442" transform="translate(495.605469 0)"/>
      <use xlink:href="#DejaVuSans-43e" transform="translate(553.857422 0)"/>
      <use xlink:href="#DejaVuSans-447" transform="translate(615.039062 0)"/>
      <use xlink:href="#DejaVuSans-43a" transform="translate(674.121094 0)"/>
      <use xlink:href="#DejaVuSans-430" transform="translate(734.521484 0)"/>
      <use xlink:href="#DejaVuSans-43c" transform="translate(795.800781 0)"/>
      <use xlink:href="#DejaVuSans-438" transform="translate(871.240234 0)"/>
      <use xlink:href="#DejaVuSans-3a" transform="translate(936.230469 0)"/>
      <use xlink:href="#DejaVuSans-20" transform="translate(969.921875 0)"/>
      <use xlink:href="#DejaVuSans-52" transform="translate(1001.708984 0)"/>
      <use xlink:href="#DejaVuSans-b2" transform="translate(1071.191406 0)"/>
      <use xlink:href="#DejaVuSans-20" transform="translate(1111.279297 0)"/>
      <use xlink:href="#DejaVuSans-3d" transform="translate(1143.066406 0)"/>
      <use xlink:href="#DejaVuSans-20" transform="translate(1226.855469 0)"/>
      <use xlink:href="#DejaVuSans-30" transform="translate(1258.642578 0)"/>
      <use xlink:href="#DejaVuSans-2c" transform="translate(1322.265625 0)"/>
      <use xlink:href="#DejaVuSans-39" transform="translate(1354.052734 0)"/>
      <use xlink:href="#DejaVuSans-39" transform="translate(1417.675781 0)"/>
      <use xlink:href="#DejaVuSans-37" transform="translate(1481.298828 0)"/>
     </g>
    </g>
   </g>
  </g>
 </g>
 <defs>
  <clipPath id="p9b3890a4a2">
   <rect x="47.449531" y="26.698047" width="293.329371" height="213.785455"/>
  </clipPath>
  <clipPath id="p146718772f">
   <rect x="381.596524" y="26.698047" width="293.329371" height="213.785455"/>
  </clipPath>
 </defs>
</svg>
