<?xml version="1.0" encoding="utf-8"?>
<svg viewBox="0 0 840 361" role="img" aria-label="Цикл инструментального агента: модель вызывает инструменты по очереди, пока не соберёт ответ"><defs><marker id="нак-20BA72" viewBox="0 0 10 10" refX="9" refY="5" markerWidth="6" markerHeight="6" orient="auto-start-reverse"><path d="M0 0 L10 5 L0 10 z" fill="#20BA72"/></marker><marker id="нак-E4572E" viewBox="0 0 10 10" refX="9" refY="5" markerWidth="6" markerHeight="6" orient="auto-start-reverse"><path d="M0 0 L10 5 L0 10 z" fill="#E4572E"/></marker></defs><rect x="0" y="30" width="196" height="105" rx="14" fill="rgba(46,54,65,.05)" stroke="rgba(46,54,65,.18)"/><g transform="translate(18 48) scale(0.8333)" fill="none" stroke="#128a53" stroke-width="2.28" stroke-linecap="round" stroke-linejoin="round"><path d="M3,4 L15,4 C16,4 17,5 17,6 L17,11 C17,12 16,13 15,13 L9,13 L6,16 L6,13 L5,13 C4,13 3,12 3,11 Z"/><path d="M17,8 L19,8 C20,8 21,9 21,10 L21,15 C21,16 20,17 19,17 L18,17 L18,20 L15,17 L11,17"/></g><text x="48" y="64" font-family="system-ui,sans-serif" font-size="19" font-weight="700" fill="#2E3641">Вопрос</text><text x="18" y="90.0" font-family="system-ui,sans-serif" font-size="16" font-weight="400" fill="rgba(46,54,65,.76)">обычными словами,</text><text x="18" y="112.0" font-family="system-ui,sans-serif" font-size="16" font-weight="400" fill="rgba(46,54,65,.76)">без SQL</text><rect x="322" y="30" width="196" height="105" rx="14" fill="rgba(32,186,114,.10)" stroke="rgba(32,186,114,.32)"/><g transform="translate(340 48) scale(0.8333)" fill="none" stroke="#128a53" stroke-width="2.28" stroke-linecap="round" stroke-linejoin="round"><rect x="6" y="6" width="12" height="12" rx="1"/><path d="M9 1v5"/><path d="M15 1v5"/><path d="M9 18v5"/><path d="M15 18v5"/><path d="M1 9h5"/><path d="M1 15h5"/><path d="M18 9h5"/><path d="M18 15h5"/></g><text x="370" y="64" font-family="system-ui,sans-serif" font-size="19" font-weight="700" fill="#2E3641">Модель</text><text x="340" y="90.0" font-family="system-ui,sans-serif" font-size="16" font-weight="400" fill="rgba(46,54,65,.76)">решает, каких</text><text x="340" y="112.0" font-family="system-ui,sans-serif" font-size="16" font-weight="400" fill="rgba(46,54,65,.76)">данных не хватает</text><rect x="644" y="30" width="196" height="105" rx="14" fill="rgba(46,54,65,.05)" stroke="rgba(46,54,65,.18)"/><g transform="translate(662 48) scale(0.8333)" fill="none" stroke="#128a53" stroke-width="2.28" stroke-linecap="round" stroke-linejoin="round"><path d="M9 5H7a2 2 0 0 0-2 2v12a2 2 0 0 0 2 2h10a2 2 0 0 0 2-2V7a2 2 0 0 0-2-2h-2"/><rect x="9" y="2" width="6" height="4" rx="1"/><path d="M9 14l2 2 4-4"/></g><text x="692" y="64" font-family="system-ui,sans-serif" font-size="19" font-weight="700" fill="#2E3641">Отчёт</text><text x="662" y="90.0" font-family="system-ui,sans-serif" font-size="16" font-weight="400" fill="rgba(46,54,65,.76)">таблицы, графики,</text><text x="662" y="112.0" font-family="system-ui,sans-serif" font-size="16" font-weight="400" fill="rgba(46,54,65,.76)">короткий вывод</text><path d="M196 82.5 L322 82.5" fill="none" stroke="#20BA72" stroke-width="2" stroke-linecap="round" marker-end="url(#нак-20BA72)"/><path d="M518 82.5 L644 82.5" fill="none" stroke="#20BA72" stroke-width="2" stroke-linecap="round" marker-end="url(#нак-20BA72)"/><text x="581.0" y="53.5" text-anchor="middle" font-family="system-ui,sans-serif" font-size="14" font-weight="600" fill="rgba(46,54,65,.6)">когда данных</text><text x="581.0" y="71.5" text-anchor="middle" font-family="system-ui,sans-serif" font-size="14" font-weight="600" fill="rgba(46,54,65,.6)">хватает</text><rect x="140" y="195" width="560" height="154" rx="16" fill="none" stroke="rgba(46,54,65,.16)" stroke-dasharray="6 5"/><text x="158" y="217" font-family="system-ui,sans-serif" font-size="14" font-weight="700" letter-spacing=".08em" fill="rgba(46,54,65,.5)">ИНСТРУМЕНТЫ</text><rect x="152" y="225" width="536" height="52" rx="12" fill="rgba(32,186,114,.10)" stroke="rgba(32,186,114,.32)"/><g transform="translate(170 241.0) scale(0.8333)" fill="none" stroke="#128a53" stroke-width="2.28" stroke-linecap="round" stroke-linejoin="round"><ellipse cx="12" cy="5" rx="9" ry="3"/><path d="M21 5v6c0 1.66-4.03 3-9 3S3 12.66 3 11V5"/><path d="M21 11v6c0 1.66-4.03 3-9 3s-9-1.34-9-3v-6"/></g><text x="200" y="256.9" font-family="ui-monospace,SFMono-Regular,Menlo,monospace" font-size="17" font-weight="700" fill="#2E3641">run_sql</text><text x="323" y="256.4" font-family="system-ui,sans-serif" font-size="15.5" fill="rgba(46,54,65,.76)">SELECT в базе, строки результата</text><rect x="152" y="285" width="536" height="52" rx="12" fill="rgba(32,186,114,.10)" stroke="rgba(32,186,114,.32)"/><g transform="translate(170 301.0) scale(0.8333)" fill="none" stroke="#128a53" stroke-width="2.28" stroke-linecap="round" stroke-linejoin="round"><path d="M18 20V10"/><path d="M12 20V4"/><path d="M6 20v-6"/></g><text x="200" y="316.9" font-family="ui-monospace,SFMono-Regular,Menlo,monospace" font-size="17" font-weight="700" fill="#2E3641">make_chart</text><text x="323" y="316.4" font-family="system-ui,sans-serif" font-size="15.5" fill="rgba(46,54,65,.76)">график по строкам результата</text><path d="M360 135 L360 195" fill="none" stroke="#20BA72" stroke-width="2" stroke-linecap="round" marker-end="url(#нак-20BA72)"/><text x="350" y="169.0" text-anchor="end" font-family="system-ui,sans-serif" font-size="14" font-weight="600" fill="rgba(46,54,65,.6)">вызов</text><path d="M480 195 L480 135" fill="none" stroke="#E4572E" stroke-width="2" stroke-linecap="round" marker-end="url(#нак-E4572E)"/><text x="490" y="169.0" text-anchor="start" font-family="system-ui,sans-serif" font-size="14" font-weight="600" fill="rgba(46,54,65,.6)">результат</text></svg>